%TF.GenerationSoftware,KiCad,Pcbnew,(6.0.10-0)*%
%TF.CreationDate,2023-02-17T15:47:28-08:00*%
%TF.ProjectId,problem2,70726f62-6c65-46d3-922e-6b696361645f,rev?*%
%TF.SameCoordinates,Original*%
%TF.FileFunction,Copper,L1,Top*%
%TF.FilePolarity,Positive*%
%FSLAX46Y46*%
G04 Gerber Fmt 4.6, Leading zero omitted, Abs format (unit mm)*
G04 Created by KiCad (PCBNEW (6.0.10-0)) date 2023-02-17 15:47:28*
%MOMM*%
%LPD*%
G01*
G04 APERTURE LIST*
G04 Aperture macros list*
%AMRoundRect*
0 Rectangle with rounded corners*
0 $1 Rounding radius*
0 $2 $3 $4 $5 $6 $7 $8 $9 X,Y pos of 4 corners*
0 Add a 4 corners polygon primitive as box body*
4,1,4,$2,$3,$4,$5,$6,$7,$8,$9,$2,$3,0*
0 Add four circle primitives for the rounded corners*
1,1,$1+$1,$2,$3*
1,1,$1+$1,$4,$5*
1,1,$1+$1,$6,$7*
1,1,$1+$1,$8,$9*
0 Add four rect primitives between the rounded corners*
20,1,$1+$1,$2,$3,$4,$5,0*
20,1,$1+$1,$4,$5,$6,$7,0*
20,1,$1+$1,$6,$7,$8,$9,0*
20,1,$1+$1,$8,$9,$2,$3,0*%
G04 Aperture macros list end*
%TA.AperFunction,SMDPad,CuDef*%
%ADD10RoundRect,0.250000X-0.450000X0.350000X-0.450000X-0.350000X0.450000X-0.350000X0.450000X0.350000X0*%
%TD*%
%TA.AperFunction,SMDPad,CuDef*%
%ADD11RoundRect,0.250001X0.624999X-0.462499X0.624999X0.462499X-0.624999X0.462499X-0.624999X-0.462499X0*%
%TD*%
%TA.AperFunction,ComponentPad*%
%ADD12R,3.000000X3.000000*%
%TD*%
%TA.AperFunction,ComponentPad*%
%ADD13C,3.000000*%
%TD*%
%TA.AperFunction,SMDPad,CuDef*%
%ADD14RoundRect,0.250001X-0.462499X-0.624999X0.462499X-0.624999X0.462499X0.624999X-0.462499X0.624999X0*%
%TD*%
%TA.AperFunction,SMDPad,CuDef*%
%ADD15RoundRect,0.150000X0.150000X-0.825000X0.150000X0.825000X-0.150000X0.825000X-0.150000X-0.825000X0*%
%TD*%
%TA.AperFunction,SMDPad,CuDef*%
%ADD16R,3.000000X2.290000*%
%TD*%
%TA.AperFunction,SMDPad,CuDef*%
%ADD17RoundRect,0.250000X0.337500X0.475000X-0.337500X0.475000X-0.337500X-0.475000X0.337500X-0.475000X0*%
%TD*%
%TA.AperFunction,SMDPad,CuDef*%
%ADD18RoundRect,0.250000X-0.425000X0.537500X-0.425000X-0.537500X0.425000X-0.537500X0.425000X0.537500X0*%
%TD*%
%TA.AperFunction,ViaPad*%
%ADD19C,0.800000*%
%TD*%
%TA.AperFunction,Conductor*%
%ADD20C,0.250000*%
%TD*%
%TA.AperFunction,Conductor*%
%ADD21C,0.508000*%
%TD*%
G04 APERTURE END LIST*
D10*
%TO.P,R2,1*%
%TO.N,/pin_7*%
X111645000Y-80457616D03*
%TO.P,R2,2*%
%TO.N,/pin_2*%
X111645000Y-82457616D03*
%TD*%
D11*
%TO.P,D1,1,K*%
%TO.N,Net-(D1-Pad1)*%
X132750000Y-74892820D03*
%TO.P,D1,2,A*%
%TO.N,+9V*%
X132750000Y-71917820D03*
%TD*%
D10*
%TO.P,R1,1*%
%TO.N,+9V*%
X111760000Y-72660000D03*
%TO.P,R1,2*%
%TO.N,/pin_7*%
X111760000Y-74660000D03*
%TD*%
D12*
%TO.P,J1,1,Pin_1*%
%TO.N,+9V*%
X127000000Y-66040000D03*
D13*
%TO.P,J1,2,Pin_2*%
%TO.N,GND*%
X121920000Y-66040000D03*
%TD*%
D14*
%TO.P,D2,1,K*%
%TO.N,GND*%
X125742500Y-86360000D03*
%TO.P,D2,2,A*%
%TO.N,Net-(D2-Pad2)*%
X128717500Y-86360000D03*
%TD*%
D15*
%TO.P,U1,1,GND*%
%TO.N,GND*%
X121195000Y-78215000D03*
%TO.P,U1,2,TR*%
%TO.N,/pin_2*%
X122465000Y-78215000D03*
%TO.P,U1,3,Q*%
%TO.N,/pin_3*%
X123735000Y-78215000D03*
%TO.P,U1,4,R*%
%TO.N,+9V*%
X125005000Y-78215000D03*
%TO.P,U1,5,CV*%
%TO.N,Net-(C2-Pad1)*%
X125005000Y-73265000D03*
%TO.P,U1,6,THR*%
%TO.N,/pin_2*%
X123735000Y-73265000D03*
%TO.P,U1,7,DIS*%
%TO.N,/pin_7*%
X122465000Y-73265000D03*
%TO.P,U1,8,VCC*%
%TO.N,+9V*%
X121195000Y-73265000D03*
D16*
%TO.P,U1,9*%
%TO.N,N/C*%
X123100000Y-75740000D03*
%TD*%
D17*
%TO.P,C2,1*%
%TO.N,Net-(C2-Pad1)*%
X120417500Y-86752488D03*
%TO.P,C2,2*%
%TO.N,GND*%
X118342500Y-86752488D03*
%TD*%
D10*
%TO.P,R4,1*%
%TO.N,/pin_3*%
X132750000Y-82345320D03*
%TO.P,R4,2*%
%TO.N,Net-(D2-Pad2)*%
X132750000Y-84345320D03*
%TD*%
%TO.P,R3,1*%
%TO.N,Net-(D1-Pad1)*%
X132927064Y-77485320D03*
%TO.P,R3,2*%
%TO.N,/pin_3*%
X132927064Y-79485320D03*
%TD*%
D18*
%TO.P,C1,1*%
%TO.N,/pin_2*%
X111760000Y-84922500D03*
%TO.P,C1,2*%
%TO.N,GND*%
X111760000Y-87797500D03*
%TD*%
D19*
%TO.N,+9V*%
X129540000Y-76200000D03*
X129540000Y-71120000D03*
%TO.N,/pin_2*%
X124460000Y-81280000D03*
X127000000Y-73660000D03*
%TO.N,GND*%
X116840000Y-88900000D03*
X121920000Y-81280000D03*
X116840000Y-66040000D03*
X114300000Y-88900000D03*
%TO.N,Net-(C2-Pad1)*%
X121920000Y-86360000D03*
X127000000Y-76200000D03*
%TO.N,/pin_7*%
X114300000Y-73660000D03*
X127000000Y-71120000D03*
%TD*%
D20*
%TO.N,/pin_7*%
X122738830Y-71120000D02*
X122329415Y-71529415D01*
X127000000Y-71120000D02*
X122738830Y-71120000D01*
X122329415Y-71529415D02*
X122329415Y-73129415D01*
X122329415Y-73129415D02*
X122465000Y-73265000D01*
D21*
%TO.N,+9V*%
X129540000Y-68580000D02*
X129540000Y-71120000D01*
X127000000Y-78740000D02*
X129540000Y-76200000D01*
D20*
%TO.N,/pin_2*%
X122645000Y-79465000D02*
X122645000Y-78395000D01*
X122645000Y-81580305D02*
X122645000Y-79465000D01*
X122645000Y-79465000D02*
X124460000Y-81280000D01*
X127000000Y-72360000D02*
X126605000Y-71965000D01*
X126605000Y-71965000D02*
X124658249Y-71965000D01*
D21*
%TO.N,+9V*%
X127000000Y-78740000D02*
X125530000Y-78740000D01*
D20*
%TO.N,/pin_2*%
X127000000Y-72360000D02*
X127000000Y-73660000D01*
X123735000Y-72888249D02*
X124658249Y-71965000D01*
X111645000Y-82457616D02*
X111645000Y-84807500D01*
X123735000Y-73265000D02*
X123735000Y-72888249D01*
X111645000Y-84807500D02*
X111760000Y-84922500D01*
X121767689Y-82457616D02*
X122645000Y-81580305D01*
X111645000Y-82457616D02*
X121767689Y-82457616D01*
X122645000Y-78395000D02*
X122465000Y-78215000D01*
%TO.N,GND*%
X116840000Y-88254988D02*
X116840000Y-88900000D01*
D21*
X119380000Y-88900000D02*
X118342500Y-87862500D01*
X125742500Y-86360000D02*
X125742500Y-87617500D01*
X124460000Y-88900000D02*
X119380000Y-88900000D01*
X121195000Y-78215000D02*
X121195000Y-80555000D01*
X118342500Y-87862500D02*
X118342500Y-86752488D01*
X118342500Y-86752488D02*
X116840000Y-88254988D01*
X121920000Y-81280000D02*
X121195000Y-80555000D01*
X125742500Y-87617500D02*
X124460000Y-88900000D01*
X112862500Y-88900000D02*
X114300000Y-88900000D01*
X111760000Y-87797500D02*
X112862500Y-88900000D01*
D20*
X121920000Y-66040000D02*
X116840000Y-66040000D01*
%TO.N,Net-(C2-Pad1)*%
X120417500Y-86752488D02*
X121527512Y-86752488D01*
X121527512Y-86752488D02*
X121920000Y-86360000D01*
X125005000Y-73265000D02*
X127000000Y-75260000D01*
X127000000Y-75260000D02*
X127000000Y-76200000D01*
%TO.N,Net-(D1-Pad1)*%
X132750000Y-74892820D02*
X132750000Y-77308256D01*
X132750000Y-77308256D02*
X132927064Y-77485320D01*
%TO.N,+9V*%
X111760000Y-72660000D02*
X112760000Y-72660000D01*
D21*
X132750000Y-66710000D02*
X132750000Y-71917820D01*
X132080000Y-66040000D02*
X127000000Y-66040000D01*
D20*
X112760000Y-72660000D02*
X114300000Y-71120000D01*
D21*
X125005000Y-78215000D02*
X125530000Y-78740000D01*
X132080000Y-66040000D02*
X132750000Y-66710000D01*
X121195000Y-71845000D02*
X121195000Y-73265000D01*
D20*
X114300000Y-71120000D02*
X119380000Y-71120000D01*
X121195000Y-72935000D02*
X121195000Y-73265000D01*
D21*
X127000000Y-66040000D02*
X129540000Y-68580000D01*
D20*
X119380000Y-71120000D02*
X121195000Y-72935000D01*
D21*
X127000000Y-66040000D02*
X121195000Y-71845000D01*
D20*
%TO.N,Net-(D2-Pad2)*%
X130735320Y-86360000D02*
X128717500Y-86360000D01*
X132750000Y-84345320D02*
X130735320Y-86360000D01*
%TO.N,/pin_7*%
X111760000Y-80342616D02*
X111645000Y-80457616D01*
X111760000Y-74660000D02*
X112760000Y-73660000D01*
X111760000Y-74660000D02*
X111760000Y-80342616D01*
X112760000Y-73660000D02*
X114300000Y-73660000D01*
%TO.N,/pin_3*%
X132927064Y-79485320D02*
X125878569Y-79485320D01*
X132750000Y-79662384D02*
X132750000Y-82345320D01*
X124658249Y-79515000D02*
X123735000Y-78591751D01*
X125878569Y-79485320D02*
X125848889Y-79515000D01*
X123735000Y-78591751D02*
X123735000Y-78215000D01*
X132927064Y-79485320D02*
X132750000Y-79662384D01*
X125848889Y-79515000D02*
X124658249Y-79515000D01*
%TD*%
%TA.AperFunction,Conductor*%
%TO.N,GND*%
G36*
X136593621Y-58948502D02*
G01*
X136640114Y-59002158D01*
X136651500Y-59054500D01*
X136651500Y-93345500D01*
X136631498Y-93413621D01*
X136577842Y-93460114D01*
X136525500Y-93471500D01*
X109854500Y-93471500D01*
X109786379Y-93451498D01*
X109739886Y-93397842D01*
X109728500Y-93345500D01*
X109728500Y-88382095D01*
X110577001Y-88382095D01*
X110577338Y-88388614D01*
X110587257Y-88484206D01*
X110590149Y-88497600D01*
X110641588Y-88651784D01*
X110647761Y-88664962D01*
X110733063Y-88802807D01*
X110742099Y-88814208D01*
X110856829Y-88928739D01*
X110868240Y-88937751D01*
X111006243Y-89022816D01*
X111019424Y-89028963D01*
X111173710Y-89080138D01*
X111187086Y-89083005D01*
X111281438Y-89092672D01*
X111287854Y-89093000D01*
X111487885Y-89093000D01*
X111503124Y-89088525D01*
X111504329Y-89087135D01*
X111506000Y-89079452D01*
X111506000Y-89074884D01*
X112014000Y-89074884D01*
X112018475Y-89090123D01*
X112019865Y-89091328D01*
X112027548Y-89092999D01*
X112232095Y-89092999D01*
X112238614Y-89092662D01*
X112334206Y-89082743D01*
X112347600Y-89079851D01*
X112501784Y-89028412D01*
X112514962Y-89022239D01*
X112652807Y-88936937D01*
X112664208Y-88927901D01*
X112778739Y-88813171D01*
X112787751Y-88801760D01*
X112872816Y-88663757D01*
X112878963Y-88650576D01*
X112930138Y-88496290D01*
X112933005Y-88482914D01*
X112942672Y-88388562D01*
X112943000Y-88382146D01*
X112943000Y-88069615D01*
X112938525Y-88054376D01*
X112937135Y-88053171D01*
X112929452Y-88051500D01*
X112032115Y-88051500D01*
X112016876Y-88055975D01*
X112015671Y-88057365D01*
X112014000Y-88065048D01*
X112014000Y-89074884D01*
X111506000Y-89074884D01*
X111506000Y-88069615D01*
X111501525Y-88054376D01*
X111500135Y-88053171D01*
X111492452Y-88051500D01*
X110595116Y-88051500D01*
X110579877Y-88055975D01*
X110578672Y-88057365D01*
X110577001Y-88065048D01*
X110577001Y-88382095D01*
X109728500Y-88382095D01*
X109728500Y-87525385D01*
X110577000Y-87525385D01*
X110581475Y-87540624D01*
X110582865Y-87541829D01*
X110590548Y-87543500D01*
X111487885Y-87543500D01*
X111503124Y-87539025D01*
X111504329Y-87537635D01*
X111506000Y-87529952D01*
X111506000Y-87525385D01*
X112014000Y-87525385D01*
X112018475Y-87540624D01*
X112019865Y-87541829D01*
X112027548Y-87543500D01*
X112924884Y-87543500D01*
X112940123Y-87539025D01*
X112941328Y-87537635D01*
X112942999Y-87529952D01*
X112942999Y-87274583D01*
X117247001Y-87274583D01*
X117247338Y-87281102D01*
X117257257Y-87376694D01*
X117260149Y-87390088D01*
X117311588Y-87544272D01*
X117317761Y-87557450D01*
X117403063Y-87695295D01*
X117412099Y-87706696D01*
X117526829Y-87821227D01*
X117538240Y-87830239D01*
X117676243Y-87915304D01*
X117689424Y-87921451D01*
X117843710Y-87972626D01*
X117857086Y-87975493D01*
X117951438Y-87985160D01*
X117957854Y-87985488D01*
X118070385Y-87985488D01*
X118085624Y-87981013D01*
X118086829Y-87979623D01*
X118088500Y-87971940D01*
X118088500Y-87967372D01*
X118596500Y-87967372D01*
X118600975Y-87982611D01*
X118602365Y-87983816D01*
X118610048Y-87985487D01*
X118727095Y-87985487D01*
X118733614Y-87985150D01*
X118829206Y-87975231D01*
X118842600Y-87972339D01*
X118996784Y-87920900D01*
X119009962Y-87914727D01*
X119147807Y-87829425D01*
X119159208Y-87820389D01*
X119273738Y-87705660D01*
X119280794Y-87696726D01*
X119338712Y-87655665D01*
X119409635Y-87652435D01*
X119471046Y-87688062D01*
X119477846Y-87695895D01*
X119481522Y-87701836D01*
X119606697Y-87826793D01*
X119612927Y-87830633D01*
X119612928Y-87830634D01*
X119750288Y-87915304D01*
X119757262Y-87919603D01*
X119837005Y-87946052D01*
X119918611Y-87973120D01*
X119918613Y-87973120D01*
X119925139Y-87975285D01*
X119931975Y-87975985D01*
X119931978Y-87975986D01*
X119975031Y-87980397D01*
X120029600Y-87985988D01*
X120805400Y-87985988D01*
X120808646Y-87985651D01*
X120808650Y-87985651D01*
X120904308Y-87975726D01*
X120904312Y-87975725D01*
X120911166Y-87975014D01*
X120917702Y-87972833D01*
X120917704Y-87972833D01*
X121049806Y-87928760D01*
X121078946Y-87919038D01*
X121229348Y-87825966D01*
X121354305Y-87700791D01*
X121368899Y-87677115D01*
X121443275Y-87556456D01*
X121443276Y-87556454D01*
X121447115Y-87550226D01*
X121473514Y-87470635D01*
X121513944Y-87412275D01*
X121579509Y-87385038D01*
X121589146Y-87384364D01*
X121619482Y-87383410D01*
X121627401Y-87383161D01*
X121646855Y-87377509D01*
X121666212Y-87373501D01*
X121678442Y-87371956D01*
X121678443Y-87371956D01*
X121686309Y-87370962D01*
X121693680Y-87368043D01*
X121693682Y-87368043D01*
X121727424Y-87354684D01*
X121738654Y-87350839D01*
X121773495Y-87340717D01*
X121773496Y-87340717D01*
X121781105Y-87338506D01*
X121787924Y-87334473D01*
X121787929Y-87334471D01*
X121798540Y-87328195D01*
X121816288Y-87319500D01*
X121835129Y-87312040D01*
X121841545Y-87307379D01*
X121841548Y-87307377D01*
X121861936Y-87292564D01*
X121935997Y-87268500D01*
X122015487Y-87268500D01*
X122021939Y-87267128D01*
X122021944Y-87267128D01*
X122108887Y-87248647D01*
X122202288Y-87228794D01*
X122208319Y-87226109D01*
X122370722Y-87153803D01*
X122370724Y-87153802D01*
X122376752Y-87151118D01*
X122383406Y-87146284D01*
X122450688Y-87097400D01*
X122531253Y-87038866D01*
X122537349Y-87032096D01*
X124522000Y-87032096D01*
X124522337Y-87038611D01*
X124532256Y-87134203D01*
X124535150Y-87147602D01*
X124586588Y-87301783D01*
X124592762Y-87314962D01*
X124678063Y-87452807D01*
X124687099Y-87464208D01*
X124801830Y-87578739D01*
X124813241Y-87587751D01*
X124951245Y-87672818D01*
X124964423Y-87678962D01*
X125118716Y-87730139D01*
X125132081Y-87733005D01*
X125226439Y-87742672D01*
X125232855Y-87743000D01*
X125470385Y-87743000D01*
X125485624Y-87738525D01*
X125486829Y-87737135D01*
X125488500Y-87729452D01*
X125488500Y-87724885D01*
X125996500Y-87724885D01*
X126000975Y-87740124D01*
X126002365Y-87741329D01*
X126010048Y-87743000D01*
X126252096Y-87743000D01*
X126258611Y-87742663D01*
X126354203Y-87732744D01*
X126367602Y-87729850D01*
X126521783Y-87678412D01*
X126534962Y-87672238D01*
X126672807Y-87586937D01*
X126684208Y-87577901D01*
X126798739Y-87463170D01*
X126807751Y-87451759D01*
X126892818Y-87313755D01*
X126898962Y-87300577D01*
X126950139Y-87146284D01*
X126953005Y-87132919D01*
X126962672Y-87038561D01*
X126963000Y-87032145D01*
X126963000Y-86632115D01*
X126958525Y-86616876D01*
X126957135Y-86615671D01*
X126949452Y-86614000D01*
X126014615Y-86614000D01*
X125999376Y-86618475D01*
X125998171Y-86619865D01*
X125996500Y-86627548D01*
X125996500Y-87724885D01*
X125488500Y-87724885D01*
X125488500Y-86632115D01*
X125484025Y-86616876D01*
X125482635Y-86615671D01*
X125474952Y-86614000D01*
X124540115Y-86614000D01*
X124524876Y-86618475D01*
X124523671Y-86619865D01*
X124522000Y-86627548D01*
X124522000Y-87032096D01*
X122537349Y-87032096D01*
X122654621Y-86901852D01*
X122654622Y-86901851D01*
X122659040Y-86896944D01*
X122754527Y-86731556D01*
X122813542Y-86549928D01*
X122816676Y-86520116D01*
X122832814Y-86366565D01*
X122833504Y-86360000D01*
X122818632Y-86218500D01*
X122814232Y-86176635D01*
X122814232Y-86176633D01*
X122813542Y-86170072D01*
X122786838Y-86087885D01*
X124522000Y-86087885D01*
X124526475Y-86103124D01*
X124527865Y-86104329D01*
X124535548Y-86106000D01*
X125470385Y-86106000D01*
X125485624Y-86101525D01*
X125486829Y-86100135D01*
X125488500Y-86092452D01*
X125488500Y-86087885D01*
X125996500Y-86087885D01*
X126000975Y-86103124D01*
X126002365Y-86104329D01*
X126010048Y-86106000D01*
X126944885Y-86106000D01*
X126960124Y-86101525D01*
X126961329Y-86100135D01*
X126963000Y-86092452D01*
X126963000Y-85687904D01*
X126962663Y-85681389D01*
X126952744Y-85585797D01*
X126949850Y-85572398D01*
X126898412Y-85418217D01*
X126892238Y-85405038D01*
X126806937Y-85267193D01*
X126797901Y-85255792D01*
X126683170Y-85141261D01*
X126671759Y-85132249D01*
X126533755Y-85047182D01*
X126520577Y-85041038D01*
X126366284Y-84989861D01*
X126352919Y-84986995D01*
X126258561Y-84977328D01*
X126252144Y-84977000D01*
X126014615Y-84977000D01*
X125999376Y-84981475D01*
X125998171Y-84982865D01*
X125996500Y-84990548D01*
X125996500Y-86087885D01*
X125488500Y-86087885D01*
X125488500Y-84995115D01*
X125484025Y-84979876D01*
X125482635Y-84978671D01*
X125474952Y-84977000D01*
X125232904Y-84977000D01*
X125226389Y-84977337D01*
X125130797Y-84987256D01*
X125117398Y-84990150D01*
X124963217Y-85041588D01*
X124950038Y-85047762D01*
X124812193Y-85133063D01*
X124800792Y-85142099D01*
X124686261Y-85256830D01*
X124677249Y-85268241D01*
X124592182Y-85406245D01*
X124586038Y-85419423D01*
X124534861Y-85573716D01*
X124531995Y-85587081D01*
X124522328Y-85681439D01*
X124522000Y-85687856D01*
X124522000Y-86087885D01*
X122786838Y-86087885D01*
X122754527Y-85988444D01*
X122659040Y-85823056D01*
X122642049Y-85804185D01*
X122535675Y-85686045D01*
X122535674Y-85686044D01*
X122531253Y-85681134D01*
X122401659Y-85586978D01*
X122382094Y-85572763D01*
X122382093Y-85572762D01*
X122376752Y-85568882D01*
X122370724Y-85566198D01*
X122370722Y-85566197D01*
X122208319Y-85493891D01*
X122208318Y-85493891D01*
X122202288Y-85491206D01*
X122108887Y-85471353D01*
X122021944Y-85452872D01*
X122021939Y-85452872D01*
X122015487Y-85451500D01*
X121824513Y-85451500D01*
X121818061Y-85452872D01*
X121818056Y-85452872D01*
X121731113Y-85471353D01*
X121637712Y-85491206D01*
X121631682Y-85493891D01*
X121631681Y-85493891D01*
X121469278Y-85566197D01*
X121469276Y-85566198D01*
X121463248Y-85568882D01*
X121457907Y-85572762D01*
X121457906Y-85572763D01*
X121342326Y-85656737D01*
X121275458Y-85680596D01*
X121202149Y-85662061D01*
X121083968Y-85589213D01*
X121083966Y-85589212D01*
X121077738Y-85585373D01*
X120997995Y-85558924D01*
X120916389Y-85531856D01*
X120916387Y-85531856D01*
X120909861Y-85529691D01*
X120903025Y-85528991D01*
X120903022Y-85528990D01*
X120859969Y-85524579D01*
X120805400Y-85518988D01*
X120029600Y-85518988D01*
X120026354Y-85519325D01*
X120026350Y-85519325D01*
X119930692Y-85529250D01*
X119930688Y-85529251D01*
X119923834Y-85529962D01*
X119917298Y-85532143D01*
X119917296Y-85532143D01*
X119900928Y-85537604D01*
X119756054Y-85585938D01*
X119605652Y-85679010D01*
X119480695Y-85804185D01*
X119477898Y-85808723D01*
X119420647Y-85849312D01*
X119349724Y-85852542D01*
X119288313Y-85816916D01*
X119280938Y-85808420D01*
X119272902Y-85798281D01*
X119158171Y-85683749D01*
X119146760Y-85674737D01*
X119008757Y-85589672D01*
X118995576Y-85583525D01*
X118841290Y-85532350D01*
X118827914Y-85529483D01*
X118733562Y-85519816D01*
X118727145Y-85519488D01*
X118614615Y-85519488D01*
X118599376Y-85523963D01*
X118598171Y-85525353D01*
X118596500Y-85533036D01*
X118596500Y-87967372D01*
X118088500Y-87967372D01*
X118088500Y-87024603D01*
X118084025Y-87009364D01*
X118082635Y-87008159D01*
X118074952Y-87006488D01*
X117265116Y-87006488D01*
X117249877Y-87010963D01*
X117248672Y-87012353D01*
X117247001Y-87020036D01*
X117247001Y-87274583D01*
X112942999Y-87274583D01*
X112942999Y-87212905D01*
X112942662Y-87206386D01*
X112932743Y-87110794D01*
X112929851Y-87097400D01*
X112878412Y-86943216D01*
X112872239Y-86930038D01*
X112786937Y-86792193D01*
X112777901Y-86780792D01*
X112663171Y-86666261D01*
X112651760Y-86657249D01*
X112513757Y-86572184D01*
X112500576Y-86566037D01*
X112346290Y-86514862D01*
X112332914Y-86511995D01*
X112238562Y-86502328D01*
X112232145Y-86502000D01*
X112032115Y-86502000D01*
X112016876Y-86506475D01*
X112015671Y-86507865D01*
X112014000Y-86515548D01*
X112014000Y-87525385D01*
X111506000Y-87525385D01*
X111506000Y-86520116D01*
X111501525Y-86504877D01*
X111500135Y-86503672D01*
X111492452Y-86502001D01*
X111287905Y-86502001D01*
X111281386Y-86502338D01*
X111185794Y-86512257D01*
X111172400Y-86515149D01*
X111018216Y-86566588D01*
X111005038Y-86572761D01*
X110867193Y-86658063D01*
X110855792Y-86667099D01*
X110741261Y-86781829D01*
X110732249Y-86793240D01*
X110647184Y-86931243D01*
X110641037Y-86944424D01*
X110589862Y-87098710D01*
X110586995Y-87112086D01*
X110577328Y-87206438D01*
X110577000Y-87212855D01*
X110577000Y-87525385D01*
X109728500Y-87525385D01*
X109728500Y-86480373D01*
X117247000Y-86480373D01*
X117251475Y-86495612D01*
X117252865Y-86496817D01*
X117260548Y-86498488D01*
X118070385Y-86498488D01*
X118085624Y-86494013D01*
X118086829Y-86492623D01*
X118088500Y-86484940D01*
X118088500Y-85537604D01*
X118084025Y-85522365D01*
X118082635Y-85521160D01*
X118074952Y-85519489D01*
X117957905Y-85519489D01*
X117951386Y-85519826D01*
X117855794Y-85529745D01*
X117842400Y-85532637D01*
X117688216Y-85584076D01*
X117675038Y-85590249D01*
X117537193Y-85675551D01*
X117525792Y-85684587D01*
X117411261Y-85799317D01*
X117402249Y-85810728D01*
X117317184Y-85948731D01*
X117311037Y-85961912D01*
X117259862Y-86116198D01*
X117256995Y-86129574D01*
X117247328Y-86223926D01*
X117247000Y-86230343D01*
X117247000Y-86480373D01*
X109728500Y-86480373D01*
X109728500Y-82858016D01*
X110436500Y-82858016D01*
X110436837Y-82861262D01*
X110436837Y-82861266D01*
X110445820Y-82947837D01*
X110447474Y-82963782D01*
X110449655Y-82970318D01*
X110449655Y-82970320D01*
X110470675Y-83033323D01*
X110503450Y-83131562D01*
X110596522Y-83281964D01*
X110721697Y-83406921D01*
X110727927Y-83410761D01*
X110727928Y-83410762D01*
X110766497Y-83434536D01*
X110872262Y-83499731D01*
X110910544Y-83512428D01*
X110968903Y-83552858D01*
X110996140Y-83618422D01*
X110983607Y-83688304D01*
X110937180Y-83739165D01*
X110860652Y-83786522D01*
X110735695Y-83911697D01*
X110642885Y-84062262D01*
X110587203Y-84230139D01*
X110576500Y-84334600D01*
X110576500Y-85510400D01*
X110576837Y-85513646D01*
X110576837Y-85513650D01*
X110584738Y-85589794D01*
X110587474Y-85616166D01*
X110589655Y-85622702D01*
X110589655Y-85622704D01*
X110611379Y-85687817D01*
X110643450Y-85783946D01*
X110736522Y-85934348D01*
X110861697Y-86059305D01*
X110867927Y-86063145D01*
X110867928Y-86063146D01*
X111005090Y-86147694D01*
X111012262Y-86152115D01*
X111066401Y-86170072D01*
X111173611Y-86205632D01*
X111173613Y-86205632D01*
X111180139Y-86207797D01*
X111186975Y-86208497D01*
X111186978Y-86208498D01*
X111230031Y-86212909D01*
X111284600Y-86218500D01*
X112235400Y-86218500D01*
X112238646Y-86218163D01*
X112238650Y-86218163D01*
X112334308Y-86208238D01*
X112334312Y-86208237D01*
X112341166Y-86207526D01*
X112347702Y-86205345D01*
X112347704Y-86205345D01*
X112479806Y-86161272D01*
X112508946Y-86151550D01*
X112659348Y-86058478D01*
X112784305Y-85933303D01*
X112855288Y-85818148D01*
X112873275Y-85788968D01*
X112873276Y-85788966D01*
X112877115Y-85782738D01*
X112908599Y-85687817D01*
X112930632Y-85621389D01*
X112930632Y-85621387D01*
X112932797Y-85614861D01*
X112935366Y-85589794D01*
X112941181Y-85533036D01*
X112943500Y-85510400D01*
X112943500Y-84334600D01*
X112932526Y-84228834D01*
X112876550Y-84061054D01*
X112783478Y-83910652D01*
X112658303Y-83785695D01*
X112507738Y-83692885D01*
X112500791Y-83690581D01*
X112494156Y-83687487D01*
X112494841Y-83686018D01*
X112443652Y-83650558D01*
X112416412Y-83584995D01*
X112428943Y-83515113D01*
X112475373Y-83464248D01*
X112563120Y-83409948D01*
X112569348Y-83406094D01*
X112694305Y-83280919D01*
X112760333Y-83173803D01*
X112774389Y-83151000D01*
X112827162Y-83103506D01*
X112881649Y-83091116D01*
X121688922Y-83091116D01*
X121700105Y-83091643D01*
X121707598Y-83093318D01*
X121715524Y-83093069D01*
X121715525Y-83093069D01*
X121775675Y-83091178D01*
X121779634Y-83091116D01*
X121807545Y-83091116D01*
X121811480Y-83090619D01*
X121811545Y-83090611D01*
X121823382Y-83089678D01*
X121855640Y-83088664D01*
X121859659Y-83088538D01*
X121867578Y-83088289D01*
X121887032Y-83082637D01*
X121906389Y-83078629D01*
X121918619Y-83077084D01*
X121918620Y-83077084D01*
X121926486Y-83076090D01*
X121933857Y-83073171D01*
X121933859Y-83073171D01*
X121967601Y-83059812D01*
X121978831Y-83055967D01*
X122013672Y-83045845D01*
X122013673Y-83045845D01*
X122021282Y-83043634D01*
X122028101Y-83039601D01*
X122028106Y-83039599D01*
X122038717Y-83033323D01*
X122056465Y-83024628D01*
X122075306Y-83017168D01*
X122111076Y-82991180D01*
X122120996Y-82984664D01*
X122152224Y-82966196D01*
X122152227Y-82966194D01*
X122159051Y-82962158D01*
X122173372Y-82947837D01*
X122188406Y-82934996D01*
X122198383Y-82927747D01*
X122204796Y-82923088D01*
X122209847Y-82916983D01*
X122209852Y-82916978D01*
X122232988Y-82889012D01*
X122240976Y-82880234D01*
X123037253Y-82083957D01*
X123045539Y-82076417D01*
X123052018Y-82072305D01*
X123063167Y-82060433D01*
X123098643Y-82022654D01*
X123101398Y-82019812D01*
X123121135Y-82000075D01*
X123123615Y-81996878D01*
X123131320Y-81987856D01*
X123156159Y-81961405D01*
X123161586Y-81955626D01*
X123165405Y-81948680D01*
X123165407Y-81948677D01*
X123171348Y-81937871D01*
X123182199Y-81921352D01*
X123189758Y-81911606D01*
X123194614Y-81905346D01*
X123197759Y-81898077D01*
X123197762Y-81898073D01*
X123212174Y-81864768D01*
X123217391Y-81854118D01*
X123238695Y-81815365D01*
X123243733Y-81795742D01*
X123250137Y-81777039D01*
X123255033Y-81765725D01*
X123255033Y-81765724D01*
X123258181Y-81758450D01*
X123259420Y-81750627D01*
X123259423Y-81750617D01*
X123265099Y-81714781D01*
X123267505Y-81703161D01*
X123276528Y-81668016D01*
X123276528Y-81668015D01*
X123278500Y-81660335D01*
X123278500Y-81640081D01*
X123280051Y-81620370D01*
X123281980Y-81608191D01*
X123283220Y-81600362D01*
X123279059Y-81556343D01*
X123278500Y-81544486D01*
X123278500Y-81298594D01*
X123298502Y-81230473D01*
X123352158Y-81183980D01*
X123422432Y-81173876D01*
X123487012Y-81203370D01*
X123493595Y-81209499D01*
X123512878Y-81228782D01*
X123546904Y-81291094D01*
X123549093Y-81304707D01*
X123558690Y-81396015D01*
X123566458Y-81469928D01*
X123625473Y-81651556D01*
X123628776Y-81657278D01*
X123628777Y-81657279D01*
X123633318Y-81665144D01*
X123720960Y-81816944D01*
X123725378Y-81821851D01*
X123725379Y-81821852D01*
X123839131Y-81948186D01*
X123848747Y-81958866D01*
X123932632Y-82019812D01*
X123984114Y-82057216D01*
X124003248Y-82071118D01*
X124009276Y-82073802D01*
X124009278Y-82073803D01*
X124171681Y-82146109D01*
X124177712Y-82148794D01*
X124271112Y-82168647D01*
X124358056Y-82187128D01*
X124358061Y-82187128D01*
X124364513Y-82188500D01*
X124555487Y-82188500D01*
X124561939Y-82187128D01*
X124561944Y-82187128D01*
X124648888Y-82168647D01*
X124742288Y-82148794D01*
X124748319Y-82146109D01*
X124910722Y-82073803D01*
X124910724Y-82073802D01*
X124916752Y-82071118D01*
X124935887Y-82057216D01*
X124987368Y-82019812D01*
X125071253Y-81958866D01*
X125080869Y-81948186D01*
X125194621Y-81821852D01*
X125194622Y-81821851D01*
X125199040Y-81816944D01*
X125286682Y-81665144D01*
X125291223Y-81657279D01*
X125291224Y-81657278D01*
X125294527Y-81651556D01*
X125353542Y-81469928D01*
X125361311Y-81396015D01*
X125372814Y-81286565D01*
X125373504Y-81280000D01*
X125371089Y-81257022D01*
X125354232Y-81096635D01*
X125354232Y-81096633D01*
X125353542Y-81090072D01*
X125294527Y-80908444D01*
X125199040Y-80743056D01*
X125071253Y-80601134D01*
X124969038Y-80526870D01*
X124922094Y-80492763D01*
X124922093Y-80492762D01*
X124916752Y-80488882D01*
X124910724Y-80486198D01*
X124910722Y-80486197D01*
X124748319Y-80413891D01*
X124748318Y-80413891D01*
X124742288Y-80411206D01*
X124678969Y-80397747D01*
X124616495Y-80364018D01*
X124582174Y-80301869D01*
X124586902Y-80231030D01*
X124629178Y-80173992D01*
X124695579Y-80148865D01*
X124705166Y-80148500D01*
X125770122Y-80148500D01*
X125781305Y-80149027D01*
X125788798Y-80150702D01*
X125796724Y-80150453D01*
X125796725Y-80150453D01*
X125856875Y-80148562D01*
X125860834Y-80148500D01*
X125888745Y-80148500D01*
X125892680Y-80148003D01*
X125892745Y-80147995D01*
X125904582Y-80147062D01*
X125936840Y-80146048D01*
X125940859Y-80145922D01*
X125948778Y-80145673D01*
X125968232Y-80140021D01*
X125987589Y-80136013D01*
X125989237Y-80135805D01*
X126007686Y-80133474D01*
X126022352Y-80127667D01*
X126068733Y-80118820D01*
X131690283Y-80118820D01*
X131758404Y-80138822D01*
X131797427Y-80178517D01*
X131878586Y-80309668D01*
X132003761Y-80434625D01*
X132009993Y-80438467D01*
X132009995Y-80438468D01*
X132056617Y-80467207D01*
X132104110Y-80519979D01*
X132116500Y-80574466D01*
X132116500Y-81166123D01*
X132096498Y-81234244D01*
X132042842Y-81280737D01*
X132030377Y-81285646D01*
X131982998Y-81301453D01*
X131982996Y-81301454D01*
X131976054Y-81303770D01*
X131969830Y-81307621D01*
X131969829Y-81307622D01*
X131927476Y-81333831D01*
X131825652Y-81396842D01*
X131700695Y-81522017D01*
X131696855Y-81528247D01*
X131696854Y-81528248D01*
X131620322Y-81652406D01*
X131607885Y-81672582D01*
X131595834Y-81708916D01*
X131557624Y-81824116D01*
X131552203Y-81840459D01*
X131551503Y-81847295D01*
X131551502Y-81847298D01*
X131550271Y-81859316D01*
X131541500Y-81944920D01*
X131541500Y-82745720D01*
X131552474Y-82851486D01*
X131554653Y-82858016D01*
X131554655Y-82858024D01*
X131564994Y-82889012D01*
X131608450Y-83019266D01*
X131701522Y-83169668D01*
X131706704Y-83174841D01*
X131788109Y-83256104D01*
X131822188Y-83318386D01*
X131817185Y-83389206D01*
X131788264Y-83434295D01*
X131758363Y-83464248D01*
X131700695Y-83522017D01*
X131696855Y-83528247D01*
X131696854Y-83528248D01*
X131661875Y-83584995D01*
X131607885Y-83672582D01*
X131552203Y-83840459D01*
X131541500Y-83944920D01*
X131541500Y-84605726D01*
X131521498Y-84673847D01*
X131504595Y-84694821D01*
X130509820Y-85689595D01*
X130447508Y-85723621D01*
X130420725Y-85726500D01*
X130056450Y-85726500D01*
X129988329Y-85706498D01*
X129941836Y-85652842D01*
X129931123Y-85613503D01*
X129928238Y-85585694D01*
X129928237Y-85585691D01*
X129927526Y-85578835D01*
X129924206Y-85568882D01*
X129873868Y-85418003D01*
X129871550Y-85411055D01*
X129778478Y-85260652D01*
X129653303Y-85135695D01*
X129510650Y-85047762D01*
X129508968Y-85046725D01*
X129508966Y-85046724D01*
X129502738Y-85042885D01*
X129406942Y-85011111D01*
X129341389Y-84989368D01*
X129341387Y-84989368D01*
X129334861Y-84987203D01*
X129328025Y-84986503D01*
X129328022Y-84986502D01*
X129284969Y-84982091D01*
X129230400Y-84976500D01*
X128204600Y-84976500D01*
X128201354Y-84976837D01*
X128201350Y-84976837D01*
X128105693Y-84986762D01*
X128105689Y-84986763D01*
X128098835Y-84987474D01*
X128092299Y-84989655D01*
X128092297Y-84989655D01*
X128075932Y-84995115D01*
X127931055Y-85043450D01*
X127780652Y-85136522D01*
X127655695Y-85261697D01*
X127651855Y-85267927D01*
X127651854Y-85267928D01*
X127635908Y-85293798D01*
X127562885Y-85412262D01*
X127549415Y-85452872D01*
X127509771Y-85572398D01*
X127507203Y-85580139D01*
X127506503Y-85586975D01*
X127506502Y-85586978D01*
X127502842Y-85622704D01*
X127496500Y-85684600D01*
X127496500Y-87035400D01*
X127496837Y-87038646D01*
X127496837Y-87038650D01*
X127506752Y-87134203D01*
X127507474Y-87141165D01*
X127509655Y-87147701D01*
X127509655Y-87147703D01*
X127529251Y-87206438D01*
X127563450Y-87308945D01*
X127656522Y-87459348D01*
X127781697Y-87584305D01*
X127787927Y-87588145D01*
X127787928Y-87588146D01*
X127925090Y-87672694D01*
X127932262Y-87677115D01*
X127990881Y-87696558D01*
X128093611Y-87730632D01*
X128093613Y-87730632D01*
X128100139Y-87732797D01*
X128106975Y-87733497D01*
X128106978Y-87733498D01*
X128150031Y-87737909D01*
X128204600Y-87743500D01*
X129230400Y-87743500D01*
X129233646Y-87743163D01*
X129233650Y-87743163D01*
X129329307Y-87733238D01*
X129329311Y-87733237D01*
X129336165Y-87732526D01*
X129342701Y-87730345D01*
X129342703Y-87730345D01*
X129474805Y-87686272D01*
X129503945Y-87676550D01*
X129654348Y-87583478D01*
X129779305Y-87458303D01*
X129823881Y-87385988D01*
X129868275Y-87313968D01*
X129868276Y-87313966D01*
X129872115Y-87307738D01*
X129925196Y-87147703D01*
X129925632Y-87146389D01*
X129925632Y-87146387D01*
X129927797Y-87139861D01*
X129931199Y-87106658D01*
X129958040Y-87040930D01*
X130016155Y-87000148D01*
X130056543Y-86993500D01*
X130656553Y-86993500D01*
X130667736Y-86994027D01*
X130675229Y-86995702D01*
X130683155Y-86995453D01*
X130683156Y-86995453D01*
X130743306Y-86993562D01*
X130747265Y-86993500D01*
X130775176Y-86993500D01*
X130779111Y-86993003D01*
X130779176Y-86992995D01*
X130791013Y-86992062D01*
X130823271Y-86991048D01*
X130827290Y-86990922D01*
X130835209Y-86990673D01*
X130854663Y-86985021D01*
X130874020Y-86981013D01*
X130886250Y-86979468D01*
X130886251Y-86979468D01*
X130894117Y-86978474D01*
X130901488Y-86975555D01*
X130901490Y-86975555D01*
X130935232Y-86962196D01*
X130946462Y-86958351D01*
X130981303Y-86948229D01*
X130981304Y-86948229D01*
X130988913Y-86946018D01*
X130995732Y-86941985D01*
X130995737Y-86941983D01*
X131006348Y-86935707D01*
X131024096Y-86927012D01*
X131042937Y-86919552D01*
X131078707Y-86893564D01*
X131088627Y-86887048D01*
X131119855Y-86868580D01*
X131119858Y-86868578D01*
X131126682Y-86864542D01*
X131141003Y-86850221D01*
X131156037Y-86837380D01*
X131166014Y-86830131D01*
X131172427Y-86825472D01*
X131200618Y-86791395D01*
X131208608Y-86782616D01*
X132500500Y-85490725D01*
X132562812Y-85456699D01*
X132589595Y-85453820D01*
X133250400Y-85453820D01*
X133253646Y-85453483D01*
X133253650Y-85453483D01*
X133349308Y-85443558D01*
X133349312Y-85443557D01*
X133356166Y-85442846D01*
X133362702Y-85440665D01*
X133362704Y-85440665D01*
X133516998Y-85389188D01*
X133523946Y-85386870D01*
X133674348Y-85293798D01*
X133699861Y-85268241D01*
X133794134Y-85173803D01*
X133799305Y-85168623D01*
X133816415Y-85140866D01*
X133888275Y-85024288D01*
X133888276Y-85024286D01*
X133892115Y-85018058D01*
X133947797Y-84850181D01*
X133958500Y-84745720D01*
X133958500Y-83944920D01*
X133958163Y-83941670D01*
X133948238Y-83846012D01*
X133948237Y-83846008D01*
X133947526Y-83839154D01*
X133931696Y-83791704D01*
X133893868Y-83678322D01*
X133891550Y-83671374D01*
X133798478Y-83520972D01*
X133711891Y-83434536D01*
X133677812Y-83372254D01*
X133682815Y-83301434D01*
X133711736Y-83256345D01*
X133794134Y-83173803D01*
X133799305Y-83168623D01*
X133822150Y-83131562D01*
X133888275Y-83024288D01*
X133888276Y-83024286D01*
X133892115Y-83018058D01*
X133925642Y-82916978D01*
X133945632Y-82856709D01*
X133945632Y-82856707D01*
X133947797Y-82850181D01*
X133958500Y-82745720D01*
X133958500Y-81944920D01*
X133956055Y-81921352D01*
X133948238Y-81846012D01*
X133948237Y-81846008D01*
X133947526Y-81839154D01*
X133941549Y-81821237D01*
X133893868Y-81678322D01*
X133891550Y-81671374D01*
X133798478Y-81520972D01*
X133740771Y-81463365D01*
X133678483Y-81401186D01*
X133673303Y-81396015D01*
X133667072Y-81392174D01*
X133528968Y-81307045D01*
X133528966Y-81307044D01*
X133522738Y-81303205D01*
X133469832Y-81285657D01*
X133411473Y-81245226D01*
X133384236Y-81179662D01*
X133383500Y-81166064D01*
X133383500Y-80711984D01*
X133403502Y-80643863D01*
X133457158Y-80597370D01*
X133496497Y-80586657D01*
X133508320Y-80585431D01*
X133526371Y-80583558D01*
X133526374Y-80583557D01*
X133533230Y-80582846D01*
X133539766Y-80580665D01*
X133539768Y-80580665D01*
X133694062Y-80529188D01*
X133701010Y-80526870D01*
X133851412Y-80433798D01*
X133976369Y-80308623D01*
X134069179Y-80158058D01*
X134124861Y-79990181D01*
X134129365Y-79946227D01*
X134135236Y-79888918D01*
X134135564Y-79885720D01*
X134135564Y-79084920D01*
X134124590Y-78979154D01*
X134068614Y-78811374D01*
X133975542Y-78660972D01*
X133888955Y-78574536D01*
X133854876Y-78512254D01*
X133859879Y-78441434D01*
X133888800Y-78396345D01*
X133971198Y-78313803D01*
X133976369Y-78308623D01*
X134069179Y-78158058D01*
X134124861Y-77990181D01*
X134125802Y-77981002D01*
X134135236Y-77888918D01*
X134135564Y-77885720D01*
X134135564Y-77084920D01*
X134134929Y-77078799D01*
X134125302Y-76986012D01*
X134125301Y-76986008D01*
X134124590Y-76979154D01*
X134109237Y-76933134D01*
X134070932Y-76818322D01*
X134068614Y-76811374D01*
X133975542Y-76660972D01*
X133850367Y-76536015D01*
X133844136Y-76532174D01*
X133706032Y-76447045D01*
X133706030Y-76447044D01*
X133699802Y-76443205D01*
X133558095Y-76396203D01*
X133538453Y-76389688D01*
X133538451Y-76389688D01*
X133531925Y-76387523D01*
X133525089Y-76386823D01*
X133525086Y-76386822D01*
X133496656Y-76383909D01*
X133430929Y-76357067D01*
X133390148Y-76298951D01*
X133383500Y-76258565D01*
X133383500Y-76231770D01*
X133403502Y-76163649D01*
X133457158Y-76117156D01*
X133496496Y-76106443D01*
X133502780Y-76105791D01*
X133524306Y-76103558D01*
X133524309Y-76103557D01*
X133531165Y-76102846D01*
X133537701Y-76100665D01*
X133537703Y-76100665D01*
X133669805Y-76056592D01*
X133698945Y-76046870D01*
X133849348Y-75953798D01*
X133974305Y-75828623D01*
X134023818Y-75748298D01*
X134063275Y-75684288D01*
X134063276Y-75684286D01*
X134067115Y-75678058D01*
X134098946Y-75582090D01*
X134120632Y-75516709D01*
X134120632Y-75516707D01*
X134122797Y-75510181D01*
X134133500Y-75405720D01*
X134133500Y-74379920D01*
X134133163Y-74376670D01*
X134123238Y-74281013D01*
X134123237Y-74281009D01*
X134122526Y-74274155D01*
X134118744Y-74262817D01*
X134068868Y-74113323D01*
X134066550Y-74106375D01*
X133973478Y-73955972D01*
X133848303Y-73831015D01*
X133715210Y-73748975D01*
X133703968Y-73742045D01*
X133703966Y-73742044D01*
X133697738Y-73738205D01*
X133537254Y-73684975D01*
X133536389Y-73684688D01*
X133536387Y-73684688D01*
X133529861Y-73682523D01*
X133523025Y-73681823D01*
X133523022Y-73681822D01*
X133479969Y-73677411D01*
X133425400Y-73671820D01*
X132074600Y-73671820D01*
X132071354Y-73672157D01*
X132071350Y-73672157D01*
X131975693Y-73682082D01*
X131975689Y-73682083D01*
X131968835Y-73682794D01*
X131962299Y-73684975D01*
X131962297Y-73684975D01*
X131882727Y-73711522D01*
X131801055Y-73738770D01*
X131650652Y-73831842D01*
X131525695Y-73957017D01*
X131521855Y-73963247D01*
X131521854Y-73963248D01*
X131476221Y-74037279D01*
X131432885Y-74107582D01*
X131377203Y-74275459D01*
X131376503Y-74282295D01*
X131376502Y-74282298D01*
X131374188Y-74304886D01*
X131366500Y-74379920D01*
X131366500Y-75405720D01*
X131366837Y-75408966D01*
X131366837Y-75408970D01*
X131370987Y-75448962D01*
X131377474Y-75511485D01*
X131379655Y-75518021D01*
X131379655Y-75518023D01*
X131410109Y-75609305D01*
X131433450Y-75679265D01*
X131526522Y-75829668D01*
X131651697Y-75954625D01*
X131657927Y-75958465D01*
X131657928Y-75958466D01*
X131795090Y-76043014D01*
X131802262Y-76047435D01*
X131882005Y-76073884D01*
X131963611Y-76100952D01*
X131963613Y-76100952D01*
X131970139Y-76103117D01*
X131976977Y-76103818D01*
X131976979Y-76103818D01*
X132003342Y-76106519D01*
X132069070Y-76133360D01*
X132109852Y-76191475D01*
X132116500Y-76231863D01*
X132116500Y-76396228D01*
X132096498Y-76464349D01*
X132056804Y-76503371D01*
X132002716Y-76536842D01*
X131997543Y-76542024D01*
X131974156Y-76565452D01*
X131877759Y-76662017D01*
X131873919Y-76668247D01*
X131873918Y-76668248D01*
X131834467Y-76732250D01*
X131784949Y-76812582D01*
X131729267Y-76980459D01*
X131718564Y-77084920D01*
X131718564Y-77885720D01*
X131718901Y-77888966D01*
X131718901Y-77888970D01*
X131728087Y-77977500D01*
X131729538Y-77991486D01*
X131785514Y-78159266D01*
X131878586Y-78309668D01*
X131883768Y-78314841D01*
X131965173Y-78396104D01*
X131999252Y-78458386D01*
X131994249Y-78529206D01*
X131965328Y-78574295D01*
X131903007Y-78636725D01*
X131877759Y-78662017D01*
X131873919Y-78668247D01*
X131873918Y-78668248D01*
X131797675Y-78791936D01*
X131744902Y-78839430D01*
X131690415Y-78851820D01*
X128270708Y-78851820D01*
X128202587Y-78831818D01*
X128156094Y-78778162D01*
X128145990Y-78707888D01*
X128175484Y-78643308D01*
X128181613Y-78636725D01*
X129703515Y-77114823D01*
X129766412Y-77080672D01*
X129815824Y-77070169D01*
X129815833Y-77070166D01*
X129822288Y-77068794D01*
X129828319Y-77066109D01*
X129990722Y-76993803D01*
X129990724Y-76993802D01*
X129996752Y-76991118D01*
X130014951Y-76977896D01*
X130076560Y-76933134D01*
X130151253Y-76878866D01*
X130155675Y-76873955D01*
X130274621Y-76741852D01*
X130274622Y-76741851D01*
X130279040Y-76736944D01*
X130374527Y-76571556D01*
X130433542Y-76389928D01*
X130453504Y-76200000D01*
X130437410Y-76046870D01*
X130434232Y-76016635D01*
X130434232Y-76016633D01*
X130433542Y-76010072D01*
X130374527Y-75828444D01*
X130279040Y-75663056D01*
X130242405Y-75622368D01*
X130155675Y-75526045D01*
X130155674Y-75526044D01*
X130151253Y-75521134D01*
X129996752Y-75408882D01*
X129990724Y-75406198D01*
X129990722Y-75406197D01*
X129828319Y-75333891D01*
X129828318Y-75333891D01*
X129822288Y-75331206D01*
X129728887Y-75311353D01*
X129641944Y-75292872D01*
X129641939Y-75292872D01*
X129635487Y-75291500D01*
X129444513Y-75291500D01*
X129438061Y-75292872D01*
X129438056Y-75292872D01*
X129351113Y-75311353D01*
X129257712Y-75331206D01*
X129251682Y-75333891D01*
X129251681Y-75333891D01*
X129089278Y-75406197D01*
X129089276Y-75406198D01*
X129083248Y-75408882D01*
X128928747Y-75521134D01*
X128924326Y-75526044D01*
X128924325Y-75526045D01*
X128837596Y-75622368D01*
X128800960Y-75663056D01*
X128705473Y-75828444D01*
X128701979Y-75839197D01*
X128653335Y-75988907D01*
X128622597Y-76039065D01*
X128082624Y-76579038D01*
X128020312Y-76613064D01*
X127949497Y-76607999D01*
X127892661Y-76565452D01*
X127867850Y-76498932D01*
X127873696Y-76451006D01*
X127876980Y-76440901D01*
X127893542Y-76389928D01*
X127913504Y-76200000D01*
X127897410Y-76046870D01*
X127894232Y-76016635D01*
X127894232Y-76016633D01*
X127893542Y-76010072D01*
X127834527Y-75828444D01*
X127739040Y-75663056D01*
X127665863Y-75581785D01*
X127635147Y-75517779D01*
X127633500Y-75497476D01*
X127633500Y-75338767D01*
X127634027Y-75327584D01*
X127635702Y-75320091D01*
X127633562Y-75252014D01*
X127633500Y-75248055D01*
X127633500Y-75220144D01*
X127632995Y-75216144D01*
X127632062Y-75204301D01*
X127630922Y-75168030D01*
X127630673Y-75160111D01*
X127625021Y-75140657D01*
X127621013Y-75121300D01*
X127619468Y-75109070D01*
X127619468Y-75109069D01*
X127618474Y-75101203D01*
X127615555Y-75093830D01*
X127602196Y-75060088D01*
X127598351Y-75048858D01*
X127588229Y-75014017D01*
X127588229Y-75014016D01*
X127586018Y-75006407D01*
X127581985Y-74999588D01*
X127581983Y-74999583D01*
X127575707Y-74988972D01*
X127567012Y-74971224D01*
X127559552Y-74952383D01*
X127533564Y-74916613D01*
X127527048Y-74906693D01*
X127508580Y-74875465D01*
X127508578Y-74875462D01*
X127504542Y-74868638D01*
X127490221Y-74854317D01*
X127477380Y-74839283D01*
X127470131Y-74829306D01*
X127465472Y-74822893D01*
X127431395Y-74794702D01*
X127422616Y-74786712D01*
X127330559Y-74694655D01*
X127296533Y-74632343D01*
X127301598Y-74561528D01*
X127344145Y-74504692D01*
X127368405Y-74490453D01*
X127450722Y-74453803D01*
X127450724Y-74453802D01*
X127456752Y-74451118D01*
X127611253Y-74338866D01*
X127679728Y-74262817D01*
X127734621Y-74201852D01*
X127734622Y-74201851D01*
X127739040Y-74196944D01*
X127834527Y-74031556D01*
X127893542Y-73849928D01*
X127894987Y-73836186D01*
X127912814Y-73666565D01*
X127913504Y-73660000D01*
X127895586Y-73489521D01*
X127894232Y-73476635D01*
X127894232Y-73476633D01*
X127893542Y-73470072D01*
X127834527Y-73288444D01*
X127739040Y-73123056D01*
X127665863Y-73041785D01*
X127635147Y-72977779D01*
X127633500Y-72957476D01*
X127633500Y-72438763D01*
X127634027Y-72427579D01*
X127635701Y-72420091D01*
X127633562Y-72352032D01*
X127633500Y-72348075D01*
X127633500Y-72320144D01*
X127632994Y-72316138D01*
X127632061Y-72304292D01*
X127630922Y-72268037D01*
X127630673Y-72260110D01*
X127625022Y-72240658D01*
X127621014Y-72221306D01*
X127619467Y-72209063D01*
X127618474Y-72201203D01*
X127615556Y-72193832D01*
X127602200Y-72160097D01*
X127598355Y-72148870D01*
X127597721Y-72146687D01*
X127586018Y-72106407D01*
X127581984Y-72099585D01*
X127581981Y-72099579D01*
X127575706Y-72088968D01*
X127567010Y-72071218D01*
X127562472Y-72059756D01*
X127562469Y-72059751D01*
X127559552Y-72052383D01*
X127542200Y-72028500D01*
X127533573Y-72016625D01*
X127527061Y-72006713D01*
X127524753Y-72002811D01*
X127507289Y-71933996D01*
X127529801Y-71866663D01*
X127559141Y-71836728D01*
X127578109Y-71822946D01*
X127611253Y-71798866D01*
X127624244Y-71784438D01*
X127734621Y-71661852D01*
X127734622Y-71661851D01*
X127739040Y-71656944D01*
X127834527Y-71491556D01*
X127893542Y-71309928D01*
X127895224Y-71293931D01*
X127912814Y-71126565D01*
X127913504Y-71120000D01*
X127912814Y-71113435D01*
X127894232Y-70936635D01*
X127894232Y-70936633D01*
X127893542Y-70930072D01*
X127834527Y-70748444D01*
X127739040Y-70583056D01*
X127724798Y-70567238D01*
X127615675Y-70446045D01*
X127615674Y-70446044D01*
X127611253Y-70441134D01*
X127456752Y-70328882D01*
X127450724Y-70326198D01*
X127450722Y-70326197D01*
X127288319Y-70253891D01*
X127288318Y-70253891D01*
X127282288Y-70251206D01*
X127188888Y-70231353D01*
X127101944Y-70212872D01*
X127101939Y-70212872D01*
X127095487Y-70211500D01*
X126904513Y-70211500D01*
X126898061Y-70212872D01*
X126898056Y-70212872D01*
X126811112Y-70231353D01*
X126717712Y-70251206D01*
X126711682Y-70253891D01*
X126711681Y-70253891D01*
X126549278Y-70326197D01*
X126549276Y-70326198D01*
X126543248Y-70328882D01*
X126388747Y-70441134D01*
X126384332Y-70446037D01*
X126379420Y-70450460D01*
X126378295Y-70449211D01*
X126324986Y-70482051D01*
X126291800Y-70486500D01*
X123936028Y-70486500D01*
X123867907Y-70466498D01*
X123821414Y-70412842D01*
X123811310Y-70342568D01*
X123840804Y-70277988D01*
X123846933Y-70271405D01*
X126032933Y-68085405D01*
X126095245Y-68051379D01*
X126122028Y-68048500D01*
X127877972Y-68048500D01*
X127946093Y-68068502D01*
X127967067Y-68085405D01*
X128740595Y-68858933D01*
X128774621Y-68921245D01*
X128777500Y-68948028D01*
X128777500Y-70589929D01*
X128760619Y-70652928D01*
X128705473Y-70748444D01*
X128646458Y-70930072D01*
X128645768Y-70936633D01*
X128645768Y-70936635D01*
X128627186Y-71113435D01*
X128626496Y-71120000D01*
X128627186Y-71126565D01*
X128644777Y-71293931D01*
X128646458Y-71309928D01*
X128705473Y-71491556D01*
X128800960Y-71656944D01*
X128805378Y-71661851D01*
X128805379Y-71661852D01*
X128915756Y-71784438D01*
X128928747Y-71798866D01*
X129083248Y-71911118D01*
X129089276Y-71913802D01*
X129089278Y-71913803D01*
X129109695Y-71922893D01*
X129257712Y-71988794D01*
X129342014Y-72006713D01*
X129438056Y-72027128D01*
X129438061Y-72027128D01*
X129444513Y-72028500D01*
X129635487Y-72028500D01*
X129641939Y-72027128D01*
X129641944Y-72027128D01*
X129737986Y-72006713D01*
X129822288Y-71988794D01*
X129970305Y-71922893D01*
X129990722Y-71913803D01*
X129990724Y-71913802D01*
X129996752Y-71911118D01*
X130151253Y-71798866D01*
X130164244Y-71784438D01*
X130274621Y-71661852D01*
X130274622Y-71661851D01*
X130279040Y-71656944D01*
X130374527Y-71491556D01*
X130433542Y-71309928D01*
X130435224Y-71293931D01*
X130452814Y-71126565D01*
X130453504Y-71120000D01*
X130452814Y-71113435D01*
X130434232Y-70936635D01*
X130434232Y-70936633D01*
X130433542Y-70930072D01*
X130374527Y-70748444D01*
X130319381Y-70652928D01*
X130302500Y-70589929D01*
X130302500Y-68647368D01*
X130303933Y-68628417D01*
X130306123Y-68614024D01*
X130306123Y-68614022D01*
X130307223Y-68606792D01*
X130302915Y-68553825D01*
X130302500Y-68543611D01*
X130302500Y-68535475D01*
X130299190Y-68507084D01*
X130298757Y-68502709D01*
X130293403Y-68436872D01*
X130293402Y-68436869D01*
X130292809Y-68429573D01*
X130290554Y-68422611D01*
X130289354Y-68416607D01*
X130287948Y-68410660D01*
X130287101Y-68403393D01*
X130262053Y-68334387D01*
X130260625Y-68330227D01*
X130240268Y-68267387D01*
X130240266Y-68267382D01*
X130238012Y-68260425D01*
X130234218Y-68254173D01*
X130231666Y-68248598D01*
X130228930Y-68243135D01*
X130226434Y-68236259D01*
X130186181Y-68174863D01*
X130183834Y-68171144D01*
X130145772Y-68108419D01*
X130138332Y-68099994D01*
X130138360Y-68099969D01*
X130135766Y-68097044D01*
X130132961Y-68093690D01*
X130128946Y-68087565D01*
X130072413Y-68034011D01*
X130069972Y-68031634D01*
X129055933Y-67017595D01*
X129021907Y-66955283D01*
X129026972Y-66884468D01*
X129069519Y-66827632D01*
X129136039Y-66802821D01*
X129145028Y-66802500D01*
X131711972Y-66802500D01*
X131780093Y-66822502D01*
X131801067Y-66839405D01*
X131950595Y-66988933D01*
X131984621Y-67051245D01*
X131987500Y-67078028D01*
X131987500Y-70610776D01*
X131967498Y-70678897D01*
X131913842Y-70725390D01*
X131901377Y-70730299D01*
X131808008Y-70761450D01*
X131808006Y-70761451D01*
X131801055Y-70763770D01*
X131650652Y-70856842D01*
X131525695Y-70982017D01*
X131521855Y-70988247D01*
X131521854Y-70988248D01*
X131440641Y-71120000D01*
X131432885Y-71132582D01*
X131430581Y-71139529D01*
X131384253Y-71279205D01*
X131377203Y-71300459D01*
X131376503Y-71307295D01*
X131376502Y-71307298D01*
X131374386Y-71327950D01*
X131366500Y-71404920D01*
X131366500Y-72430720D01*
X131366837Y-72433966D01*
X131366837Y-72433970D01*
X131367335Y-72438763D01*
X131377474Y-72536485D01*
X131379655Y-72543021D01*
X131379655Y-72543023D01*
X131404837Y-72618502D01*
X131433450Y-72704265D01*
X131526522Y-72854668D01*
X131651697Y-72979625D01*
X131657927Y-72983465D01*
X131657928Y-72983466D01*
X131795090Y-73068014D01*
X131802262Y-73072435D01*
X131882005Y-73098884D01*
X131963611Y-73125952D01*
X131963613Y-73125952D01*
X131970139Y-73128117D01*
X131976975Y-73128817D01*
X131976978Y-73128818D01*
X132020031Y-73133229D01*
X132074600Y-73138820D01*
X133425400Y-73138820D01*
X133428646Y-73138483D01*
X133428650Y-73138483D01*
X133524307Y-73128558D01*
X133524311Y-73128557D01*
X133531165Y-73127846D01*
X133537701Y-73125665D01*
X133537703Y-73125665D01*
X133669805Y-73081592D01*
X133698945Y-73071870D01*
X133849348Y-72978798D01*
X133974305Y-72853623D01*
X134006312Y-72801699D01*
X134063275Y-72709288D01*
X134063276Y-72709286D01*
X134067115Y-72703058D01*
X134122797Y-72535181D01*
X134133500Y-72430720D01*
X134133500Y-71404920D01*
X134127157Y-71343786D01*
X134123238Y-71306013D01*
X134123237Y-71306009D01*
X134122526Y-71299155D01*
X134117319Y-71283546D01*
X134068868Y-71138323D01*
X134066550Y-71131375D01*
X133973478Y-70980972D01*
X133848303Y-70856015D01*
X133842072Y-70852174D01*
X133703968Y-70767045D01*
X133703966Y-70767044D01*
X133697738Y-70763205D01*
X133598833Y-70730400D01*
X133540473Y-70689970D01*
X133513236Y-70624406D01*
X133512500Y-70610807D01*
X133512500Y-66777376D01*
X133513933Y-66758426D01*
X133516124Y-66744027D01*
X133516124Y-66744021D01*
X133517224Y-66736792D01*
X133512915Y-66683817D01*
X133512500Y-66673602D01*
X133512500Y-66665475D01*
X133509189Y-66637076D01*
X133508760Y-66632736D01*
X133507525Y-66617544D01*
X133502809Y-66559574D01*
X133500553Y-66552612D01*
X133499357Y-66546624D01*
X133497949Y-66540667D01*
X133497101Y-66533393D01*
X133494603Y-66526511D01*
X133494602Y-66526507D01*
X133472055Y-66464393D01*
X133470645Y-66460289D01*
X133448013Y-66390425D01*
X133444213Y-66384162D01*
X133441675Y-66378620D01*
X133438933Y-66373144D01*
X133436434Y-66366259D01*
X133396185Y-66304868D01*
X133393870Y-66301200D01*
X133355773Y-66238419D01*
X133352057Y-66234212D01*
X133352054Y-66234208D01*
X133348332Y-66229995D01*
X133348362Y-66229969D01*
X133345764Y-66227041D01*
X133342960Y-66223687D01*
X133338946Y-66217565D01*
X133282415Y-66164013D01*
X133279972Y-66161635D01*
X132666806Y-65548468D01*
X132654420Y-65534055D01*
X132645795Y-65522335D01*
X132641454Y-65516436D01*
X132600945Y-65482021D01*
X132593429Y-65475091D01*
X132587685Y-65469347D01*
X132584811Y-65467073D01*
X132584804Y-65467067D01*
X132565289Y-65451628D01*
X132561885Y-65448837D01*
X132511528Y-65406055D01*
X132511524Y-65406052D01*
X132505949Y-65401316D01*
X132499432Y-65397988D01*
X132494368Y-65394611D01*
X132489144Y-65391384D01*
X132483400Y-65386840D01*
X132457109Y-65374552D01*
X132416918Y-65355768D01*
X132412967Y-65353837D01*
X132354117Y-65323787D01*
X132347596Y-65320457D01*
X132340481Y-65318716D01*
X132334735Y-65316579D01*
X132328952Y-65314655D01*
X132322321Y-65311556D01*
X132250443Y-65296606D01*
X132246171Y-65295639D01*
X132174888Y-65278196D01*
X132169289Y-65277849D01*
X132169285Y-65277848D01*
X132163670Y-65277500D01*
X132163672Y-65277461D01*
X132159771Y-65277228D01*
X132155412Y-65276839D01*
X132148244Y-65275348D01*
X132140927Y-65275546D01*
X132070423Y-65277454D01*
X132067014Y-65277500D01*
X129134500Y-65277500D01*
X129066379Y-65257498D01*
X129019886Y-65203842D01*
X129008500Y-65151500D01*
X129008500Y-64491866D01*
X129001745Y-64429684D01*
X128950615Y-64293295D01*
X128863261Y-64176739D01*
X128746705Y-64089385D01*
X128610316Y-64038255D01*
X128548134Y-64031500D01*
X125451866Y-64031500D01*
X125389684Y-64038255D01*
X125253295Y-64089385D01*
X125136739Y-64176739D01*
X125049385Y-64293295D01*
X124998255Y-64429684D01*
X124991500Y-64491866D01*
X124991500Y-66917972D01*
X124971498Y-66986093D01*
X124954595Y-67007067D01*
X120703472Y-71258190D01*
X120689059Y-71270577D01*
X120671436Y-71283546D01*
X120653362Y-71304821D01*
X120594015Y-71343786D01*
X120523022Y-71344479D01*
X120468242Y-71312337D01*
X119883652Y-70727747D01*
X119876112Y-70719461D01*
X119872000Y-70712982D01*
X119822348Y-70666356D01*
X119819507Y-70663602D01*
X119799770Y-70643865D01*
X119796573Y-70641385D01*
X119787551Y-70633680D01*
X119774122Y-70621069D01*
X119755321Y-70603414D01*
X119748375Y-70599595D01*
X119748372Y-70599593D01*
X119737566Y-70593652D01*
X119721047Y-70582801D01*
X119715048Y-70578148D01*
X119705041Y-70570386D01*
X119697772Y-70567241D01*
X119697768Y-70567238D01*
X119664463Y-70552826D01*
X119653813Y-70547609D01*
X119615060Y-70526305D01*
X119595437Y-70521267D01*
X119576734Y-70514863D01*
X119565420Y-70509967D01*
X119565419Y-70509967D01*
X119558145Y-70506819D01*
X119550322Y-70505580D01*
X119550312Y-70505577D01*
X119514476Y-70499901D01*
X119502856Y-70497495D01*
X119467711Y-70488472D01*
X119467710Y-70488472D01*
X119460030Y-70486500D01*
X119439776Y-70486500D01*
X119420065Y-70484949D01*
X119407886Y-70483020D01*
X119400057Y-70481780D01*
X119370786Y-70484547D01*
X119356039Y-70485941D01*
X119344181Y-70486500D01*
X114378767Y-70486500D01*
X114367584Y-70485973D01*
X114360091Y-70484298D01*
X114352165Y-70484547D01*
X114352164Y-70484547D01*
X114292001Y-70486438D01*
X114288043Y-70486500D01*
X114260144Y-70486500D01*
X114256154Y-70487004D01*
X114244320Y-70487936D01*
X114200111Y-70489326D01*
X114192497Y-70491538D01*
X114192492Y-70491539D01*
X114180659Y-70494977D01*
X114161296Y-70498988D01*
X114141203Y-70501526D01*
X114133836Y-70504443D01*
X114133831Y-70504444D01*
X114100092Y-70517802D01*
X114088865Y-70521646D01*
X114046407Y-70533982D01*
X114039581Y-70538019D01*
X114028972Y-70544293D01*
X114011224Y-70552988D01*
X113992383Y-70560448D01*
X113985967Y-70565110D01*
X113985966Y-70565110D01*
X113956613Y-70586436D01*
X113946693Y-70592952D01*
X113915465Y-70611420D01*
X113915462Y-70611422D01*
X113908638Y-70615458D01*
X113894317Y-70629779D01*
X113879284Y-70642619D01*
X113862893Y-70654528D01*
X113854217Y-70665016D01*
X113834702Y-70688605D01*
X113826712Y-70697384D01*
X112834215Y-71689880D01*
X112771903Y-71723906D01*
X112701087Y-71718841D01*
X112679004Y-71708045D01*
X112538968Y-71621725D01*
X112538966Y-71621724D01*
X112532738Y-71617885D01*
X112372254Y-71564655D01*
X112371389Y-71564368D01*
X112371387Y-71564368D01*
X112364861Y-71562203D01*
X112358025Y-71561503D01*
X112358022Y-71561502D01*
X112314969Y-71557091D01*
X112260400Y-71551500D01*
X111259600Y-71551500D01*
X111256354Y-71551837D01*
X111256350Y-71551837D01*
X111160692Y-71561762D01*
X111160688Y-71561763D01*
X111153834Y-71562474D01*
X111147298Y-71564655D01*
X111147296Y-71564655D01*
X111015194Y-71608728D01*
X110986054Y-71618450D01*
X110835652Y-71711522D01*
X110710695Y-71836697D01*
X110706855Y-71842927D01*
X110706854Y-71842928D01*
X110629366Y-71968637D01*
X110617885Y-71987262D01*
X110609743Y-72011811D01*
X110578367Y-72106407D01*
X110562203Y-72155139D01*
X110561503Y-72161975D01*
X110561502Y-72161978D01*
X110557483Y-72201203D01*
X110551500Y-72259600D01*
X110551500Y-73060400D01*
X110551837Y-73063646D01*
X110551837Y-73063650D01*
X110561024Y-73152187D01*
X110562474Y-73166166D01*
X110618450Y-73333946D01*
X110711522Y-73484348D01*
X110716704Y-73489521D01*
X110798109Y-73570784D01*
X110832188Y-73633066D01*
X110827185Y-73703886D01*
X110798264Y-73748975D01*
X110710695Y-73836697D01*
X110706855Y-73842927D01*
X110706854Y-73842928D01*
X110632688Y-73963248D01*
X110617885Y-73987262D01*
X110562203Y-74155139D01*
X110561503Y-74161975D01*
X110561502Y-74161978D01*
X110558239Y-74193831D01*
X110551500Y-74259600D01*
X110551500Y-75060400D01*
X110551837Y-75063646D01*
X110551837Y-75063650D01*
X110559828Y-75140661D01*
X110562474Y-75166166D01*
X110564655Y-75172702D01*
X110564655Y-75172704D01*
X110581805Y-75224108D01*
X110618450Y-75333946D01*
X110711522Y-75484348D01*
X110836697Y-75609305D01*
X110842927Y-75613145D01*
X110842928Y-75613146D01*
X110950193Y-75679265D01*
X110987262Y-75702115D01*
X111040168Y-75719663D01*
X111098527Y-75760094D01*
X111125764Y-75825658D01*
X111126500Y-75839256D01*
X111126500Y-79240233D01*
X111106498Y-79308354D01*
X111052842Y-79354847D01*
X111038656Y-79359557D01*
X111038834Y-79360090D01*
X110871054Y-79416066D01*
X110720652Y-79509138D01*
X110595695Y-79634313D01*
X110591855Y-79640543D01*
X110591854Y-79640544D01*
X110591661Y-79640858D01*
X110502885Y-79784878D01*
X110447203Y-79952755D01*
X110446503Y-79959591D01*
X110446502Y-79959594D01*
X110442644Y-79997249D01*
X110436500Y-80057216D01*
X110436500Y-80858016D01*
X110447474Y-80963782D01*
X110503450Y-81131562D01*
X110596522Y-81281964D01*
X110648480Y-81333831D01*
X110683109Y-81368400D01*
X110717188Y-81430682D01*
X110712185Y-81501502D01*
X110683264Y-81546591D01*
X110609614Y-81620370D01*
X110595695Y-81634313D01*
X110591855Y-81640543D01*
X110591854Y-81640544D01*
X110519176Y-81758450D01*
X110502885Y-81784878D01*
X110487051Y-81832616D01*
X110450880Y-81941670D01*
X110447203Y-81952755D01*
X110446503Y-81959591D01*
X110446502Y-81959594D01*
X110443163Y-81992185D01*
X110436500Y-82057216D01*
X110436500Y-82858016D01*
X109728500Y-82858016D01*
X109728500Y-67629654D01*
X120695618Y-67629654D01*
X120702673Y-67639627D01*
X120733679Y-67665551D01*
X120740598Y-67670579D01*
X120965272Y-67811515D01*
X120972807Y-67815556D01*
X121214520Y-67924694D01*
X121222551Y-67927680D01*
X121476832Y-68003002D01*
X121485184Y-68004869D01*
X121747340Y-68044984D01*
X121755874Y-68045700D01*
X122021045Y-68049867D01*
X122029596Y-68049418D01*
X122292883Y-68017557D01*
X122301284Y-68015955D01*
X122557824Y-67948653D01*
X122565926Y-67945926D01*
X122810949Y-67844434D01*
X122818617Y-67840628D01*
X123047598Y-67706822D01*
X123054679Y-67702009D01*
X123134655Y-67639301D01*
X123143125Y-67627442D01*
X123136608Y-67615818D01*
X121932812Y-66412022D01*
X121918868Y-66404408D01*
X121917035Y-66404539D01*
X121910420Y-66408790D01*
X120702910Y-67616300D01*
X120695618Y-67629654D01*
X109728500Y-67629654D01*
X109728500Y-66023204D01*
X119907665Y-66023204D01*
X119922932Y-66287969D01*
X119924005Y-66296470D01*
X119975065Y-66556722D01*
X119977276Y-66564974D01*
X120063184Y-66815894D01*
X120066499Y-66823779D01*
X120185664Y-67060713D01*
X120190020Y-67068079D01*
X120319347Y-67256250D01*
X120329601Y-67264594D01*
X120343342Y-67257448D01*
X121547978Y-66052812D01*
X121554356Y-66041132D01*
X122284408Y-66041132D01*
X122284539Y-66042965D01*
X122288790Y-66049580D01*
X123495730Y-67256520D01*
X123507939Y-67263187D01*
X123519439Y-67254497D01*
X123616831Y-67121913D01*
X123621418Y-67114685D01*
X123747962Y-66881621D01*
X123751530Y-66873827D01*
X123845271Y-66625750D01*
X123847748Y-66617544D01*
X123906954Y-66359038D01*
X123908294Y-66350577D01*
X123932031Y-66084616D01*
X123932277Y-66079677D01*
X123932666Y-66042485D01*
X123932523Y-66037519D01*
X123914362Y-65771123D01*
X123913201Y-65762649D01*
X123859419Y-65502944D01*
X123857120Y-65494709D01*
X123768588Y-65244705D01*
X123765191Y-65236854D01*
X123643550Y-65001178D01*
X123639122Y-64993866D01*
X123520031Y-64824417D01*
X123509509Y-64816037D01*
X123496121Y-64823089D01*
X122292022Y-66027188D01*
X122284408Y-66041132D01*
X121554356Y-66041132D01*
X121555592Y-66038868D01*
X121555461Y-66037035D01*
X121551210Y-66030420D01*
X120343814Y-64823024D01*
X120331804Y-64816466D01*
X120320064Y-64825434D01*
X120211935Y-64975911D01*
X120207418Y-64983196D01*
X120083325Y-65217567D01*
X120079839Y-65225395D01*
X119988700Y-65474446D01*
X119986311Y-65482670D01*
X119929812Y-65741795D01*
X119928563Y-65750250D01*
X119907754Y-66014653D01*
X119907665Y-66023204D01*
X109728500Y-66023204D01*
X109728500Y-64452500D01*
X120696584Y-64452500D01*
X120702980Y-64463770D01*
X121907188Y-65667978D01*
X121921132Y-65675592D01*
X121922965Y-65675461D01*
X121929580Y-65671210D01*
X123136604Y-64464186D01*
X123143795Y-64451017D01*
X123136473Y-64440780D01*
X123089233Y-64402115D01*
X123082261Y-64397160D01*
X122856122Y-64258582D01*
X122848552Y-64254624D01*
X122605704Y-64148022D01*
X122597644Y-64145120D01*
X122342592Y-64072467D01*
X122334214Y-64070685D01*
X122071656Y-64033318D01*
X122063111Y-64032691D01*
X121797908Y-64031302D01*
X121789374Y-64031839D01*
X121526433Y-64066456D01*
X121518035Y-64068149D01*
X121262238Y-64138127D01*
X121254143Y-64140946D01*
X121010199Y-64244997D01*
X121002577Y-64248881D01*
X120775013Y-64385075D01*
X120767981Y-64389962D01*
X120705053Y-64440377D01*
X120696584Y-64452500D01*
X109728500Y-64452500D01*
X109728500Y-59054500D01*
X109748502Y-58986379D01*
X109802158Y-58939886D01*
X109854500Y-58928500D01*
X136525500Y-58928500D01*
X136593621Y-58948502D01*
G37*
%TD.AperFunction*%
%TA.AperFunction,Conductor*%
G36*
X119133527Y-71773502D02*
G01*
X119154501Y-71790405D01*
X120349595Y-72985499D01*
X120383621Y-73047811D01*
X120386500Y-73074594D01*
X120386500Y-74156502D01*
X120389438Y-74193831D01*
X120435855Y-74353601D01*
X120439892Y-74360427D01*
X120516509Y-74489980D01*
X120516511Y-74489983D01*
X120520547Y-74496807D01*
X120638193Y-74614453D01*
X120645017Y-74618489D01*
X120645020Y-74618491D01*
X120668443Y-74632343D01*
X120781399Y-74699145D01*
X120789010Y-74701356D01*
X120789012Y-74701357D01*
X120841231Y-74716528D01*
X120941169Y-74745562D01*
X120947574Y-74746066D01*
X120947579Y-74746067D01*
X120972029Y-74747991D01*
X120975386Y-74748255D01*
X121041727Y-74773541D01*
X121083867Y-74830679D01*
X121091500Y-74873867D01*
X121091500Y-76606638D01*
X121071498Y-76674759D01*
X121017842Y-76721252D01*
X120975381Y-76732250D01*
X120947664Y-76734430D01*
X120935069Y-76736730D01*
X120789210Y-76779107D01*
X120774779Y-76785352D01*
X120645322Y-76861911D01*
X120632896Y-76871551D01*
X120526551Y-76977896D01*
X120516911Y-76990322D01*
X120440352Y-77119779D01*
X120434107Y-77134210D01*
X120391731Y-77280065D01*
X120389430Y-77292667D01*
X120387193Y-77321084D01*
X120387000Y-77326014D01*
X120387000Y-77942885D01*
X120391475Y-77958124D01*
X120392865Y-77959329D01*
X120400548Y-77961000D01*
X121323000Y-77961000D01*
X121391121Y-77981002D01*
X121437614Y-78034658D01*
X121449000Y-78087000D01*
X121449000Y-79676878D01*
X121452973Y-79690409D01*
X121460871Y-79691544D01*
X121600790Y-79650893D01*
X121615221Y-79644648D01*
X121744677Y-79568089D01*
X121752360Y-79562129D01*
X121818444Y-79536180D01*
X121888067Y-79550078D01*
X121904160Y-79560420D01*
X121908193Y-79564453D01*
X121915017Y-79568489D01*
X121915020Y-79568491D01*
X121949640Y-79588965D01*
X121998092Y-79640858D01*
X122011500Y-79697418D01*
X122011500Y-81265710D01*
X121991498Y-81333831D01*
X121974595Y-81354806D01*
X121542188Y-81787212D01*
X121479876Y-81821237D01*
X121453093Y-81824116D01*
X112881781Y-81824116D01*
X112813660Y-81804114D01*
X112774637Y-81764419D01*
X112708337Y-81657279D01*
X112693478Y-81633268D01*
X112680558Y-81620370D01*
X112606891Y-81546832D01*
X112572812Y-81484550D01*
X112577815Y-81413730D01*
X112606736Y-81368641D01*
X112689134Y-81286099D01*
X112694305Y-81280919D01*
X112703680Y-81265710D01*
X112783275Y-81136584D01*
X112783276Y-81136582D01*
X112787115Y-81130354D01*
X112813564Y-81050611D01*
X112840632Y-80969005D01*
X112840632Y-80969003D01*
X112842797Y-80962477D01*
X112853500Y-80858016D01*
X112853500Y-80057216D01*
X112842526Y-79951450D01*
X112819524Y-79882503D01*
X112788868Y-79790618D01*
X112786550Y-79783670D01*
X112693478Y-79633268D01*
X112568303Y-79508311D01*
X112453383Y-79437473D01*
X112405891Y-79384702D01*
X112393500Y-79330214D01*
X112393500Y-79103984D01*
X120387001Y-79103984D01*
X120387195Y-79108920D01*
X120389430Y-79137336D01*
X120391730Y-79149931D01*
X120434107Y-79295790D01*
X120440352Y-79310221D01*
X120516911Y-79439678D01*
X120526551Y-79452104D01*
X120632896Y-79558449D01*
X120645322Y-79568089D01*
X120774779Y-79644648D01*
X120789210Y-79650893D01*
X120923605Y-79689939D01*
X120937706Y-79689899D01*
X120941000Y-79682630D01*
X120941000Y-78487115D01*
X120936525Y-78471876D01*
X120935135Y-78470671D01*
X120927452Y-78469000D01*
X120405116Y-78469000D01*
X120389877Y-78473475D01*
X120388672Y-78474865D01*
X120387001Y-78482548D01*
X120387001Y-79103984D01*
X112393500Y-79103984D01*
X112393500Y-75839197D01*
X112413502Y-75771076D01*
X112467158Y-75724583D01*
X112479623Y-75719674D01*
X112527002Y-75703867D01*
X112527004Y-75703866D01*
X112533946Y-75701550D01*
X112571909Y-75678058D01*
X112678120Y-75612332D01*
X112684348Y-75608478D01*
X112809305Y-75483303D01*
X112902115Y-75332738D01*
X112942746Y-75210240D01*
X112955632Y-75171389D01*
X112955632Y-75171387D01*
X112957797Y-75164861D01*
X112968500Y-75060400D01*
X112968500Y-74419500D01*
X112988502Y-74351379D01*
X113042158Y-74304886D01*
X113094500Y-74293500D01*
X113591800Y-74293500D01*
X113659921Y-74313502D01*
X113679147Y-74329843D01*
X113679420Y-74329540D01*
X113684332Y-74333963D01*
X113688747Y-74338866D01*
X113698550Y-74345988D01*
X113749681Y-74383137D01*
X113843248Y-74451118D01*
X113849276Y-74453802D01*
X113849278Y-74453803D01*
X114011681Y-74526109D01*
X114017712Y-74528794D01*
X114111113Y-74548647D01*
X114198056Y-74567128D01*
X114198061Y-74567128D01*
X114204513Y-74568500D01*
X114395487Y-74568500D01*
X114401939Y-74567128D01*
X114401944Y-74567128D01*
X114488887Y-74548647D01*
X114582288Y-74528794D01*
X114588319Y-74526109D01*
X114750722Y-74453803D01*
X114750724Y-74453802D01*
X114756752Y-74451118D01*
X114911253Y-74338866D01*
X114979728Y-74262817D01*
X115034621Y-74201852D01*
X115034622Y-74201851D01*
X115039040Y-74196944D01*
X115134527Y-74031556D01*
X115193542Y-73849928D01*
X115194987Y-73836186D01*
X115212814Y-73666565D01*
X115213504Y-73660000D01*
X115195586Y-73489521D01*
X115194232Y-73476635D01*
X115194232Y-73476633D01*
X115193542Y-73470072D01*
X115134527Y-73288444D01*
X115039040Y-73123056D01*
X114982625Y-73060400D01*
X114915675Y-72986045D01*
X114915674Y-72986044D01*
X114911253Y-72981134D01*
X114756752Y-72868882D01*
X114750724Y-72866198D01*
X114750722Y-72866197D01*
X114588319Y-72793891D01*
X114588318Y-72793891D01*
X114582288Y-72791206D01*
X114488887Y-72771353D01*
X114401944Y-72752872D01*
X114401939Y-72752872D01*
X114395487Y-72751500D01*
X114204513Y-72751500D01*
X114198061Y-72752872D01*
X114198056Y-72752872D01*
X114111113Y-72771353D01*
X114017712Y-72791206D01*
X114011682Y-72793891D01*
X114011681Y-72793891D01*
X113849278Y-72866197D01*
X113849276Y-72866198D01*
X113843248Y-72868882D01*
X113689514Y-72980577D01*
X113622649Y-73004434D01*
X113553497Y-72988354D01*
X113504017Y-72937441D01*
X113489917Y-72867858D01*
X113515675Y-72801699D01*
X113526360Y-72789545D01*
X114525500Y-71790405D01*
X114587812Y-71756379D01*
X114614595Y-71753500D01*
X119065406Y-71753500D01*
X119133527Y-71773502D01*
G37*
%TD.AperFunction*%
%TD*%
M02*
