%TF.GenerationSoftware,KiCad,Pcbnew,(6.0.10-0)*%
%TF.CreationDate,2023-02-17T15:47:28-08:00*%
%TF.ProjectId,problem2,70726f62-6c65-46d3-922e-6b696361645f,rev?*%
%TF.SameCoordinates,Original*%
%TF.FileFunction,Legend,Top*%
%TF.FilePolarity,Positive*%
%FSLAX46Y46*%
G04 Gerber Fmt 4.6, Leading zero omitted, Abs format (unit mm)*
G04 Created by KiCad (PCBNEW (6.0.10-0)) date 2023-02-17 15:47:28*
%MOMM*%
%LPD*%
G01*
G04 APERTURE LIST*
%ADD10C,0.150000*%
%ADD11C,0.120000*%
G04 APERTURE END LIST*
D10*
X109414285Y-91397142D02*
X109614285Y-91397142D01*
X109700000Y-91711428D02*
X109414285Y-91711428D01*
X109414285Y-91111428D01*
X109700000Y-91111428D01*
X109957142Y-91397142D02*
X110157142Y-91397142D01*
X110242857Y-91711428D02*
X109957142Y-91711428D01*
X109957142Y-91111428D01*
X110242857Y-91111428D01*
X110471428Y-91168571D02*
X110500000Y-91140000D01*
X110557142Y-91111428D01*
X110700000Y-91111428D01*
X110757142Y-91140000D01*
X110785714Y-91168571D01*
X110814285Y-91225714D01*
X110814285Y-91282857D01*
X110785714Y-91368571D01*
X110442857Y-91711428D01*
X110814285Y-91711428D01*
X111185714Y-91111428D02*
X111242857Y-91111428D01*
X111300000Y-91140000D01*
X111328571Y-91168571D01*
X111357142Y-91225714D01*
X111385714Y-91340000D01*
X111385714Y-91482857D01*
X111357142Y-91597142D01*
X111328571Y-91654285D01*
X111300000Y-91682857D01*
X111242857Y-91711428D01*
X111185714Y-91711428D01*
X111128571Y-91682857D01*
X111100000Y-91654285D01*
X111071428Y-91597142D01*
X111042857Y-91482857D01*
X111042857Y-91340000D01*
X111071428Y-91225714D01*
X111100000Y-91168571D01*
X111128571Y-91140000D01*
X111185714Y-91111428D01*
X111957142Y-91711428D02*
X111614285Y-91711428D01*
X111785714Y-91711428D02*
X111785714Y-91111428D01*
X111728571Y-91197142D01*
X111671428Y-91254285D01*
X111614285Y-91282857D01*
X112071428Y-91768571D02*
X112528571Y-91768571D01*
X112957142Y-91711428D02*
X112671428Y-91711428D01*
X112671428Y-91111428D01*
X113414285Y-91711428D02*
X113414285Y-91397142D01*
X113385714Y-91340000D01*
X113328571Y-91311428D01*
X113214285Y-91311428D01*
X113157142Y-91340000D01*
X113414285Y-91682857D02*
X113357142Y-91711428D01*
X113214285Y-91711428D01*
X113157142Y-91682857D01*
X113128571Y-91625714D01*
X113128571Y-91568571D01*
X113157142Y-91511428D01*
X113214285Y-91482857D01*
X113357142Y-91482857D01*
X113414285Y-91454285D01*
X113700000Y-91711428D02*
X113700000Y-91111428D01*
X113700000Y-91340000D02*
X113757142Y-91311428D01*
X113871428Y-91311428D01*
X113928571Y-91340000D01*
X113957142Y-91368571D01*
X113985714Y-91425714D01*
X113985714Y-91597142D01*
X113957142Y-91654285D01*
X113928571Y-91682857D01*
X113871428Y-91711428D01*
X113757142Y-91711428D01*
X113700000Y-91682857D01*
X114500000Y-91111428D02*
X114385714Y-91111428D01*
X114328571Y-91140000D01*
X114300000Y-91168571D01*
X114242857Y-91254285D01*
X114214285Y-91368571D01*
X114214285Y-91597142D01*
X114242857Y-91654285D01*
X114271428Y-91682857D01*
X114328571Y-91711428D01*
X114442857Y-91711428D01*
X114500000Y-91682857D01*
X114528571Y-91654285D01*
X114557142Y-91597142D01*
X114557142Y-91454285D01*
X114528571Y-91397142D01*
X114500000Y-91368571D01*
X114442857Y-91340000D01*
X114328571Y-91340000D01*
X114271428Y-91368571D01*
X114242857Y-91397142D01*
X114214285Y-91454285D01*
X114671428Y-91768571D02*
X115128571Y-91768571D01*
X115271428Y-91311428D02*
X115271428Y-91911428D01*
X115271428Y-91340000D02*
X115328571Y-91311428D01*
X115442857Y-91311428D01*
X115500000Y-91340000D01*
X115528571Y-91368571D01*
X115557142Y-91425714D01*
X115557142Y-91597142D01*
X115528571Y-91654285D01*
X115500000Y-91682857D01*
X115442857Y-91711428D01*
X115328571Y-91711428D01*
X115271428Y-91682857D01*
X115814285Y-91711428D02*
X115814285Y-91311428D01*
X115814285Y-91425714D02*
X115842857Y-91368571D01*
X115871428Y-91340000D01*
X115928571Y-91311428D01*
X115985714Y-91311428D01*
X116271428Y-91711428D02*
X116214285Y-91682857D01*
X116185714Y-91654285D01*
X116157142Y-91597142D01*
X116157142Y-91425714D01*
X116185714Y-91368571D01*
X116214285Y-91340000D01*
X116271428Y-91311428D01*
X116357142Y-91311428D01*
X116414285Y-91340000D01*
X116442857Y-91368571D01*
X116471428Y-91425714D01*
X116471428Y-91597142D01*
X116442857Y-91654285D01*
X116414285Y-91682857D01*
X116357142Y-91711428D01*
X116271428Y-91711428D01*
X116728571Y-91711428D02*
X116728571Y-91111428D01*
X116728571Y-91340000D02*
X116785714Y-91311428D01*
X116900000Y-91311428D01*
X116957142Y-91340000D01*
X116985714Y-91368571D01*
X117014285Y-91425714D01*
X117014285Y-91597142D01*
X116985714Y-91654285D01*
X116957142Y-91682857D01*
X116900000Y-91711428D01*
X116785714Y-91711428D01*
X116728571Y-91682857D01*
X117357142Y-91711428D02*
X117300000Y-91682857D01*
X117271428Y-91625714D01*
X117271428Y-91111428D01*
X117814285Y-91682857D02*
X117757142Y-91711428D01*
X117642857Y-91711428D01*
X117585714Y-91682857D01*
X117557142Y-91625714D01*
X117557142Y-91397142D01*
X117585714Y-91340000D01*
X117642857Y-91311428D01*
X117757142Y-91311428D01*
X117814285Y-91340000D01*
X117842857Y-91397142D01*
X117842857Y-91454285D01*
X117557142Y-91511428D01*
X118100000Y-91711428D02*
X118100000Y-91311428D01*
X118100000Y-91368571D02*
X118128571Y-91340000D01*
X118185714Y-91311428D01*
X118271428Y-91311428D01*
X118328571Y-91340000D01*
X118357142Y-91397142D01*
X118357142Y-91711428D01*
X118357142Y-91397142D02*
X118385714Y-91340000D01*
X118442857Y-91311428D01*
X118528571Y-91311428D01*
X118585714Y-91340000D01*
X118614285Y-91397142D01*
X118614285Y-91711428D01*
X118871428Y-91168571D02*
X118900000Y-91140000D01*
X118957142Y-91111428D01*
X119100000Y-91111428D01*
X119157142Y-91140000D01*
X119185714Y-91168571D01*
X119214285Y-91225714D01*
X119214285Y-91282857D01*
X119185714Y-91368571D01*
X118842857Y-91711428D01*
X119214285Y-91711428D01*
X127780000Y-91711428D02*
X127780000Y-91111428D01*
X127922857Y-91111428D01*
X128008571Y-91140000D01*
X128065714Y-91197142D01*
X128094285Y-91254285D01*
X128122857Y-91368571D01*
X128122857Y-91454285D01*
X128094285Y-91568571D01*
X128065714Y-91625714D01*
X128008571Y-91682857D01*
X127922857Y-91711428D01*
X127780000Y-91711428D01*
X128608571Y-91682857D02*
X128551428Y-91711428D01*
X128437142Y-91711428D01*
X128380000Y-91682857D01*
X128351428Y-91625714D01*
X128351428Y-91397142D01*
X128380000Y-91340000D01*
X128437142Y-91311428D01*
X128551428Y-91311428D01*
X128608571Y-91340000D01*
X128637142Y-91397142D01*
X128637142Y-91454285D01*
X128351428Y-91511428D01*
X128865714Y-91682857D02*
X128922857Y-91711428D01*
X129037142Y-91711428D01*
X129094285Y-91682857D01*
X129122857Y-91625714D01*
X129122857Y-91597142D01*
X129094285Y-91540000D01*
X129037142Y-91511428D01*
X128951428Y-91511428D01*
X128894285Y-91482857D01*
X128865714Y-91425714D01*
X128865714Y-91397142D01*
X128894285Y-91340000D01*
X128951428Y-91311428D01*
X129037142Y-91311428D01*
X129094285Y-91340000D01*
X129380000Y-91711428D02*
X129380000Y-91311428D01*
X129380000Y-91111428D02*
X129351428Y-91140000D01*
X129380000Y-91168571D01*
X129408571Y-91140000D01*
X129380000Y-91111428D01*
X129380000Y-91168571D01*
X129922857Y-91311428D02*
X129922857Y-91797142D01*
X129894285Y-91854285D01*
X129865714Y-91882857D01*
X129808571Y-91911428D01*
X129722857Y-91911428D01*
X129665714Y-91882857D01*
X129922857Y-91682857D02*
X129865714Y-91711428D01*
X129751428Y-91711428D01*
X129694285Y-91682857D01*
X129665714Y-91654285D01*
X129637142Y-91597142D01*
X129637142Y-91425714D01*
X129665714Y-91368571D01*
X129694285Y-91340000D01*
X129751428Y-91311428D01*
X129865714Y-91311428D01*
X129922857Y-91340000D01*
X130208571Y-91311428D02*
X130208571Y-91711428D01*
X130208571Y-91368571D02*
X130237142Y-91340000D01*
X130294285Y-91311428D01*
X130380000Y-91311428D01*
X130437142Y-91340000D01*
X130465714Y-91397142D01*
X130465714Y-91711428D01*
X130980000Y-91682857D02*
X130922857Y-91711428D01*
X130808571Y-91711428D01*
X130751428Y-91682857D01*
X130722857Y-91625714D01*
X130722857Y-91397142D01*
X130751428Y-91340000D01*
X130808571Y-91311428D01*
X130922857Y-91311428D01*
X130980000Y-91340000D01*
X131008571Y-91397142D01*
X131008571Y-91454285D01*
X130722857Y-91511428D01*
X131265714Y-91711428D02*
X131265714Y-91311428D01*
X131265714Y-91425714D02*
X131294285Y-91368571D01*
X131322857Y-91340000D01*
X131380000Y-91311428D01*
X131437142Y-91311428D01*
X131637142Y-91654285D02*
X131665714Y-91682857D01*
X131637142Y-91711428D01*
X131608571Y-91682857D01*
X131637142Y-91654285D01*
X131637142Y-91711428D01*
X131637142Y-91340000D02*
X131665714Y-91368571D01*
X131637142Y-91397142D01*
X131608571Y-91368571D01*
X131637142Y-91340000D01*
X131637142Y-91397142D01*
X132494285Y-91425714D02*
X132494285Y-91711428D01*
X132294285Y-91111428D02*
X132494285Y-91425714D01*
X132694285Y-91111428D01*
X133151428Y-91311428D02*
X133151428Y-91711428D01*
X132894285Y-91311428D02*
X132894285Y-91625714D01*
X132922857Y-91682857D01*
X132980000Y-91711428D01*
X133065714Y-91711428D01*
X133122857Y-91682857D01*
X133151428Y-91654285D01*
X133437142Y-91311428D02*
X133437142Y-91825714D01*
X133408571Y-91882857D01*
X133351428Y-91911428D01*
X133322857Y-91911428D01*
X133437142Y-91111428D02*
X133408571Y-91140000D01*
X133437142Y-91168571D01*
X133465714Y-91140000D01*
X133437142Y-91111428D01*
X133437142Y-91168571D01*
X133722857Y-91711428D02*
X133722857Y-91311428D01*
X133722857Y-91111428D02*
X133694285Y-91140000D01*
X133722857Y-91168571D01*
X133751428Y-91140000D01*
X133722857Y-91111428D01*
X133722857Y-91168571D01*
X134237142Y-91682857D02*
X134180000Y-91711428D01*
X134065714Y-91711428D01*
X134008571Y-91682857D01*
X133980000Y-91625714D01*
X133980000Y-91397142D01*
X134008571Y-91340000D01*
X134065714Y-91311428D01*
X134180000Y-91311428D01*
X134237142Y-91340000D01*
X134265714Y-91397142D01*
X134265714Y-91454285D01*
X133980000Y-91511428D01*
X135322857Y-91654285D02*
X135294285Y-91682857D01*
X135208571Y-91711428D01*
X135151428Y-91711428D01*
X135065714Y-91682857D01*
X135008571Y-91625714D01*
X134980000Y-91568571D01*
X134951428Y-91454285D01*
X134951428Y-91368571D01*
X134980000Y-91254285D01*
X135008571Y-91197142D01*
X135065714Y-91140000D01*
X135151428Y-91111428D01*
X135208571Y-91111428D01*
X135294285Y-91140000D01*
X135322857Y-91168571D01*
X135837142Y-91711428D02*
X135837142Y-91397142D01*
X135808571Y-91340000D01*
X135751428Y-91311428D01*
X135637142Y-91311428D01*
X135580000Y-91340000D01*
X135837142Y-91682857D02*
X135780000Y-91711428D01*
X135637142Y-91711428D01*
X135580000Y-91682857D01*
X135551428Y-91625714D01*
X135551428Y-91568571D01*
X135580000Y-91511428D01*
X135637142Y-91482857D01*
X135780000Y-91482857D01*
X135837142Y-91454285D01*
X136208571Y-91711428D02*
X136151428Y-91682857D01*
X136122857Y-91654285D01*
X136094285Y-91597142D01*
X136094285Y-91425714D01*
X136122857Y-91368571D01*
X136151428Y-91340000D01*
X136208571Y-91311428D01*
X136294285Y-91311428D01*
X136351428Y-91340000D01*
X136380000Y-91368571D01*
X136408571Y-91425714D01*
X136408571Y-91597142D01*
X136380000Y-91654285D01*
X136351428Y-91682857D01*
X136294285Y-91711428D01*
X136208571Y-91711428D01*
%TO.C,R2*%
X113747380Y-81624282D02*
X113271190Y-81957616D01*
X113747380Y-82195711D02*
X112747380Y-82195711D01*
X112747380Y-81814758D01*
X112795000Y-81719520D01*
X112842619Y-81671901D01*
X112937857Y-81624282D01*
X113080714Y-81624282D01*
X113175952Y-81671901D01*
X113223571Y-81719520D01*
X113271190Y-81814758D01*
X113271190Y-82195711D01*
X112842619Y-81243330D02*
X112795000Y-81195711D01*
X112747380Y-81100473D01*
X112747380Y-80862377D01*
X112795000Y-80767139D01*
X112842619Y-80719520D01*
X112937857Y-80671901D01*
X113033095Y-80671901D01*
X113175952Y-80719520D01*
X113747380Y-81290949D01*
X113747380Y-80671901D01*
%TO.C,D1*%
X131382380Y-74143415D02*
X130382380Y-74143415D01*
X130382380Y-73905320D01*
X130430000Y-73762462D01*
X130525238Y-73667224D01*
X130620476Y-73619605D01*
X130810952Y-73571986D01*
X130953809Y-73571986D01*
X131144285Y-73619605D01*
X131239523Y-73667224D01*
X131334761Y-73762462D01*
X131382380Y-73905320D01*
X131382380Y-74143415D01*
X131382380Y-72619605D02*
X131382380Y-73191034D01*
X131382380Y-72905320D02*
X130382380Y-72905320D01*
X130525238Y-73000558D01*
X130620476Y-73095796D01*
X130668095Y-73191034D01*
%TO.C,R1*%
X113862380Y-73826666D02*
X113386190Y-74160000D01*
X113862380Y-74398095D02*
X112862380Y-74398095D01*
X112862380Y-74017142D01*
X112910000Y-73921904D01*
X112957619Y-73874285D01*
X113052857Y-73826666D01*
X113195714Y-73826666D01*
X113290952Y-73874285D01*
X113338571Y-73921904D01*
X113386190Y-74017142D01*
X113386190Y-74398095D01*
X113862380Y-72874285D02*
X113862380Y-73445714D01*
X113862380Y-73160000D02*
X112862380Y-73160000D01*
X113005238Y-73255238D01*
X113100476Y-73350476D01*
X113148095Y-73445714D01*
%TO.C,J1*%
X124126666Y-70572380D02*
X124126666Y-71286666D01*
X124079047Y-71429523D01*
X123983809Y-71524761D01*
X123840952Y-71572380D01*
X123745714Y-71572380D01*
X125126666Y-71572380D02*
X124555238Y-71572380D01*
X124840952Y-71572380D02*
X124840952Y-70572380D01*
X124745714Y-70715238D01*
X124650476Y-70810476D01*
X124555238Y-70858095D01*
%TO.C,D2*%
X126491904Y-84992380D02*
X126491904Y-83992380D01*
X126730000Y-83992380D01*
X126872857Y-84040000D01*
X126968095Y-84135238D01*
X127015714Y-84230476D01*
X127063333Y-84420952D01*
X127063333Y-84563809D01*
X127015714Y-84754285D01*
X126968095Y-84849523D01*
X126872857Y-84944761D01*
X126730000Y-84992380D01*
X126491904Y-84992380D01*
X127444285Y-84087619D02*
X127491904Y-84040000D01*
X127587142Y-83992380D01*
X127825238Y-83992380D01*
X127920476Y-84040000D01*
X127968095Y-84087619D01*
X128015714Y-84182857D01*
X128015714Y-84278095D01*
X127968095Y-84420952D01*
X127396666Y-84992380D01*
X128015714Y-84992380D01*
%TO.C,U1*%
X119152380Y-76501904D02*
X119961904Y-76501904D01*
X120057142Y-76454285D01*
X120104761Y-76406666D01*
X120152380Y-76311428D01*
X120152380Y-76120952D01*
X120104761Y-76025714D01*
X120057142Y-75978095D01*
X119961904Y-75930476D01*
X119152380Y-75930476D01*
X120152380Y-74930476D02*
X120152380Y-75501904D01*
X120152380Y-75216190D02*
X119152380Y-75216190D01*
X119295238Y-75311428D01*
X119390476Y-75406666D01*
X119438095Y-75501904D01*
%TO.C,C2*%
X119213333Y-88789630D02*
X119165714Y-88837249D01*
X119022857Y-88884868D01*
X118927619Y-88884868D01*
X118784761Y-88837249D01*
X118689523Y-88742011D01*
X118641904Y-88646773D01*
X118594285Y-88456297D01*
X118594285Y-88313440D01*
X118641904Y-88122964D01*
X118689523Y-88027726D01*
X118784761Y-87932488D01*
X118927619Y-87884868D01*
X119022857Y-87884868D01*
X119165714Y-87932488D01*
X119213333Y-87980107D01*
X119594285Y-87980107D02*
X119641904Y-87932488D01*
X119737142Y-87884868D01*
X119975238Y-87884868D01*
X120070476Y-87932488D01*
X120118095Y-87980107D01*
X120165714Y-88075345D01*
X120165714Y-88170583D01*
X120118095Y-88313440D01*
X119546666Y-88884868D01*
X120165714Y-88884868D01*
%TO.C,R4*%
X134852380Y-83511986D02*
X134376190Y-83845320D01*
X134852380Y-84083415D02*
X133852380Y-84083415D01*
X133852380Y-83702462D01*
X133900000Y-83607224D01*
X133947619Y-83559605D01*
X134042857Y-83511986D01*
X134185714Y-83511986D01*
X134280952Y-83559605D01*
X134328571Y-83607224D01*
X134376190Y-83702462D01*
X134376190Y-84083415D01*
X134185714Y-82654843D02*
X134852380Y-82654843D01*
X133804761Y-82892939D02*
X134519047Y-83131034D01*
X134519047Y-82511986D01*
%TO.C,R3*%
X135029444Y-78651986D02*
X134553254Y-78985320D01*
X135029444Y-79223415D02*
X134029444Y-79223415D01*
X134029444Y-78842462D01*
X134077064Y-78747224D01*
X134124683Y-78699605D01*
X134219921Y-78651986D01*
X134362778Y-78651986D01*
X134458016Y-78699605D01*
X134505635Y-78747224D01*
X134553254Y-78842462D01*
X134553254Y-79223415D01*
X134029444Y-78318653D02*
X134029444Y-77699605D01*
X134410397Y-78032939D01*
X134410397Y-77890081D01*
X134458016Y-77794843D01*
X134505635Y-77747224D01*
X134600873Y-77699605D01*
X134838968Y-77699605D01*
X134934206Y-77747224D01*
X134981825Y-77794843D01*
X135029444Y-77890081D01*
X135029444Y-78175796D01*
X134981825Y-78271034D01*
X134934206Y-78318653D01*
%TO.C,C1*%
X113867142Y-86526666D02*
X113914761Y-86574285D01*
X113962380Y-86717142D01*
X113962380Y-86812380D01*
X113914761Y-86955238D01*
X113819523Y-87050476D01*
X113724285Y-87098095D01*
X113533809Y-87145714D01*
X113390952Y-87145714D01*
X113200476Y-87098095D01*
X113105238Y-87050476D01*
X113010000Y-86955238D01*
X112962380Y-86812380D01*
X112962380Y-86717142D01*
X113010000Y-86574285D01*
X113057619Y-86526666D01*
X113962380Y-85574285D02*
X113962380Y-86145714D01*
X113962380Y-85860000D02*
X112962380Y-85860000D01*
X113105238Y-85955238D01*
X113200476Y-86050476D01*
X113248095Y-86145714D01*
D11*
%TO.C,R2*%
X110910000Y-81230552D02*
X110910000Y-81684680D01*
X112380000Y-81230552D02*
X112380000Y-81684680D01*
%TO.C,D1*%
X131615000Y-75865320D02*
X133885000Y-75865320D01*
X131615000Y-71805320D02*
X131615000Y-75865320D01*
X133885000Y-75865320D02*
X133885000Y-71805320D01*
%TO.C,R1*%
X111025000Y-73432936D02*
X111025000Y-73887064D01*
X112495000Y-73432936D02*
X112495000Y-73887064D01*
%TO.C,J1*%
X119380000Y-69850000D02*
X129540000Y-69850000D01*
X119380000Y-62230000D02*
X119380000Y-69850000D01*
X119380000Y-63500000D02*
X129540000Y-63500000D01*
X129540000Y-62230000D02*
X119380000Y-62230000D01*
X129540000Y-69850000D02*
X129540000Y-62230000D01*
%TO.C,D2*%
X128830000Y-85225000D02*
X124770000Y-85225000D01*
X124770000Y-85225000D02*
X124770000Y-87495000D01*
X124770000Y-87495000D02*
X128830000Y-87495000D01*
%TO.C,U1*%
X120540000Y-75740000D02*
X120540000Y-79190000D01*
X125660000Y-75740000D02*
X125660000Y-73790000D01*
X120540000Y-75740000D02*
X120540000Y-73790000D01*
X125660000Y-75740000D02*
X125660000Y-77690000D01*
%TO.C,C2*%
X119641252Y-86017488D02*
X119118748Y-86017488D01*
X119641252Y-87487488D02*
X119118748Y-87487488D01*
%TO.C,R4*%
X132015000Y-83118256D02*
X132015000Y-83572384D01*
X133485000Y-83118256D02*
X133485000Y-83572384D01*
%TO.C,R3*%
X132192064Y-78258256D02*
X132192064Y-78712384D01*
X133662064Y-78258256D02*
X133662064Y-78712384D01*
%TO.C,C1*%
X112695000Y-83875000D02*
X110825000Y-83875000D01*
X112695000Y-87960000D02*
X112695000Y-83875000D01*
X110825000Y-83875000D02*
X110825000Y-87960000D01*
%TD*%
M02*
